<svg xmlns="http://www.w3.org/2000/svg" xmlns:xlink="http://www.w3.org/1999/xlink" width="291.167" height="169" viewBox="0 0 291.167 169">
  <defs>
    <clipPath id="clip-path">
      <rect id="Rectangle_56" data-name="Rectangle 56" width="44.948" height="19.674" fill="none"/>
    </clipPath>
    <filter id="Path_43" x="112.955" y="35.232" width="168.545" height="55.535" filterUnits="userSpaceOnUse">
      <feOffset dy="2" input="SourceAlpha"/>
      <feGaussianBlur stdDeviation="4.5" result="blur"/>
      <feFlood flood-color="#3a2e13" flood-opacity="0.302"/>
      <feComposite operator="in" in2="blur"/>
      <feComposite in="SourceGraphic"/>
    </filter>
    <filter id="Path_42" x="106.9" y="58.5" width="184.267" height="64.268" filterUnits="userSpaceOnUse">
      <feOffset dy="2" input="SourceAlpha"/>
      <feGaussianBlur stdDeviation="4.5" result="blur-2"/>
      <feFlood flood-color="#3a2e13" flood-opacity="0.302"/>
      <feComposite operator="in" in2="blur-2"/>
      <feComposite in="SourceGraphic"/>
    </filter>
  </defs>
  <g id="Group_129" data-name="Group 129" transform="translate(-822 -294)">
    <g id="Path_47" data-name="Path 47" transform="translate(822 294)" fill="#fff">
      <path d="M 272 168.5 L 8 168.5 C 3.864500045776367 168.5 0.5 165.135498046875 0.5 161 L 0.5 8 C 0.5 3.864500045776367 3.864500045776367 0.5 8 0.5 L 272 0.5 C 276.135498046875 0.5 279.5 3.864500045776367 279.5 8 L 279.5 161 C 279.5 165.135498046875 276.135498046875 168.5 272 168.5 Z" stroke="none"/>
      <path d="M 8 1 C 4.140167236328125 1 1 4.140182495117188 1 8 L 1 161 C 1 164.8598175048828 4.140167236328125 168 8 168 L 272 168 C 275.8598327636719 168 279 164.8598175048828 279 161 L 279 8 C 279 4.140182495117188 275.8598327636719 1 272 1 L 8 1 M 8 0 L 272 0 C 276.4182739257813 0 280 3.581710815429688 280 8 L 280 161 C 280 165.4182891845703 276.4182739257813 169 272 169 L 8 169 C 3.58172607421875 169 0 165.4182891845703 0 161 L 0 8 C 0 3.581710815429688 3.58172607421875 0 8 0 Z" stroke="none" fill="#707070"/>
    </g>
    <g id="Rectangle_37" data-name="Rectangle 37" transform="translate(822 294)" fill="none" stroke="#707070" stroke-width="1">
      <rect width="280" height="169" rx="8" stroke="none"/>
      <rect x="0.5" y="0.5" width="279" height="168" rx="7.5" fill="none"/>
    </g>
    <path id="Rectangle_59" data-name="Rectangle 59" d="M0,0H280a0,0,0,0,1,0,0V6a8,8,0,0,1-8,8H8A8,8,0,0,1,0,6V0A0,0,0,0,1,0,0Z" transform="translate(822 449)" fill="#d7e0f9"/>
    <g id="Rectangle_38" data-name="Rectangle 38" transform="translate(834 321)" fill="#d7e0f9" stroke="#707070" stroke-width="0.5">
      <rect width="53" height="59" rx="2" stroke="none"/>
      <rect x="0.25" y="0.25" width="52.5" height="58.5" rx="1.75" fill="none"/>
    </g>
    <g id="Rectangle_39" data-name="Rectangle 39" transform="translate(1063 416)" fill="#d7e0f9" stroke="#707070" stroke-width="0.5">
      <rect width="27" height="30" rx="2" stroke="none"/>
      <rect x="0.25" y="0.25" width="26.5" height="29.5" rx="1.75" fill="none"/>
    </g>
    <rect id="Rectangle_40" data-name="Rectangle 40" width="87" height="5" transform="translate(841 454)" fill="#fff"/>
    <rect id="Rectangle_41" data-name="Rectangle 41" width="27" height="5" transform="translate(1063 454)" fill="#fff"/>
    <rect id="Rectangle_43" data-name="Rectangle 43" width="73" height="5" transform="translate(911 331)" fill="#c9c9c9"/>
    <rect id="Rectangle_44" data-name="Rectangle 44" width="122" height="5" transform="translate(911 321)" fill="#c9c9c9"/>
    <rect id="Rectangle_45" data-name="Rectangle 45" width="73" height="5" transform="translate(999 331)" fill="#c9c9c9"/>
    <rect id="Rectangle_46" data-name="Rectangle 46" width="61" height="6" transform="translate(911 341)" fill="#c9c9c9"/>
    <rect id="Rectangle_47" data-name="Rectangle 47" width="46" height="5" transform="translate(911 351)" fill="#c9c9c9"/>
    <rect id="Rectangle_48" data-name="Rectangle 48" width="73" height="6" transform="translate(911 375)" fill="#c9c9c9"/>
    <rect id="Rectangle_49" data-name="Rectangle 49" width="73" height="5" transform="translate(911 386)" fill="#c9c9c9"/>
    <rect id="Rectangle_50" data-name="Rectangle 50" width="51" height="6" transform="translate(911 395)" fill="#c9c9c9"/>
    <rect id="Rectangle_51" data-name="Rectangle 51" width="37" height="6" transform="translate(911 410)" fill="#c9c9c9"/>
    <rect id="Rectangle_52" data-name="Rectangle 52" width="37" height="5" transform="translate(911 420)" fill="#c9c9c9"/>
    <rect id="Rectangle_54" data-name="Rectangle 54" width="37" height="5" transform="translate(911 439)" fill="#c9c9c9"/>
    <g id="Group_115" data-name="Group 115" transform="translate(838.278 298)">
      <rect id="Rectangle_55" data-name="Rectangle 55" width="40.145" height="0.178" transform="translate(2.372 12.781)" fill="#0059a9"/>
      <g id="Group_114" data-name="Group 114" transform="translate(0 0)">
        <g id="Group_113" data-name="Group 113" transform="translate(0 0)" clip-path="url(#clip-path)">
          <path id="Path_15" data-name="Path 15" d="M495.616,316.106l.048,0c-.045-.045-.1-.1-.179-.162a5.888,5.888,0,0,1-1.3-3.955,7.736,7.736,0,0,0-.089-1.171,7.657,7.657,0,0,0-2.981.106c-1.247.4-1.433.774-3.7-.083a17.4,17.4,0,0,0-6.005-.637c.286.57.288.569.711,1.3a16.294,16.294,0,0,1,1.847,4.348c.065.431.088.794.088.794.081-.041,1.521-.42,1.521-.42a21.668,21.668,0,0,1,2.842-.692c1.083-.115,1.113.247,2.409.256a12.368,12.368,0,0,1,1.967-.16h0a10.962,10.962,0,0,1,2.171.522,3.263,3.263,0,0,1,.646-.051" transform="translate(-466.056 -308.891)" fill="#fff"/>
          <path id="Path_16" data-name="Path 16" d="M487.184,313.392a8.242,8.242,0,0,1-.423-1.493,9.991,9.991,0,0,0-5.349-1.658c.286.57.288.569.711,1.3,3.47.626,4.747,1.89,4.747,1.89a8.32,8.32,0,0,0-2.9,2.458c.065.431.088.793.088.793.081-.041,1.521-.42,1.521-.42a4.989,4.989,0,0,1,2.371-1.922,2.289,2.289,0,0,1-.766-.952" transform="translate(-466.056 -308.925)" fill="#0059a9"/>
          <path id="Path_17" data-name="Path 17" d="M506.812,316.953c-.393-.4-1.876-1.472-5.313-2.8,0,0,.785-.988,3.834-1.317a7.734,7.734,0,0,0-.089-1.171,7.416,7.416,0,0,0-4.3,1.27,2.527,2.527,0,0,0,.18,1.134,1.246,1.246,0,0,1-.074,1.189,10.791,10.791,0,0,1,2.9,1.221,10.964,10.964,0,0,1,2.172.522l-.043.011a2.2,2.2,0,0,0-1.69,2.078,2.033,2.033,0,0,0,.742,1.581,2.828,2.828,0,0,0,1.629.524,2.126,2.126,0,1,0,.056-4.243m.021,3.909a1.188,1.188,0,0,1-.961-.726,2.747,2.747,0,0,1-.279-1.236c0-.562.211-1.626,1.011-1.626.936,0,1.24,1.318,1.24,1.955,0,.565-.211,1.632-1.011,1.632" transform="translate(-477.205 -309.735)" fill="#0059a9"/>
          <path id="Path_18" data-name="Path 18" d="M497.1,315.335a2.527,2.527,0,0,1-.18-1.134h0a1.321,1.321,0,0,1-.337.025,2.47,2.47,0,0,1-.6-.112,6.811,6.811,0,0,0-.99-.22,2.789,2.789,0,0,0-1.11.083h0a8.226,8.226,0,0,0,.423,1.493,2.282,2.282,0,0,0,.766.952,2.306,2.306,0,0,0,.578.315,1.98,1.98,0,0,1,.6.317,1.583,1.583,0,0,0,.742-.489l.028-.038a1.246,1.246,0,0,0,.075-1.189" transform="translate(-473.178 -311.001)" fill="#ffc600"/>
          <path id="Path_19" data-name="Path 19" d="M496.559,316.594s-.216-.24.122-.163c0,0,.033,0,.032,0,.029,0,.059,0,.063.033a.226.226,0,0,0,.124.138.474.474,0,0,0,.2.025.287.287,0,0,1-.1.146s-.067.022-.06.147a.188.188,0,0,1-.139-.031s-.1-.032-.1.051c0,0,.085-.026.115.011a.091.091,0,0,0-.06.133s.086.031.18-.1c0,0,.02.01.021.025s-.117.026.079.165c0,0-.039-.144.027-.149a.147.147,0,0,1,.1.1s.021-.1.054-.108c0,0-.137-.124.019-.1,0,0,.027-.015-.032-.057,0,0,.062-.03.1,0,0,0-.021-.026-.007-.046h.095s-.135-.052.052-.129c0,0-.085-.041,0-.057,0,0,.037,0,.026-.1a.205.205,0,0,1-.325-.16.178.178,0,0,1,.227.1s.033-.025-.008-.118c0,0,.117-.057.045-.353,0,0-.009-.025.067-.062,0,0,.136-.084-.108-.159,0,0,.1.111-.017.148a.678.678,0,0,1-.142-.636.631.631,0,0,0,.026-.322.3.3,0,0,0-.431-.185s.17.042.158.181a.647.647,0,0,0-.034.441,1.092,1.092,0,0,0,.229.386.784.784,0,0,1,.106.151.317.317,0,0,0-.115-.036s-.165-.018.009.154c-.018-.019-.1-.113.14-.052,0,0,.145.264-.018.3a.23.23,0,0,1-.187-.088s-.153-.18-.2-.247a.646.646,0,0,1-.214-.438s-.008-.1.066-.12h0a.019.019,0,0,0,0-.009c-.178-.183-.065-.285-.065-.285a.041.041,0,0,0,.045-.02.843.843,0,0,1-.107-.129c0-.021.04-.046.04-.046l-.06-.061c-.05-.021-.064-.17-.064-.17l-.05.01a.419.419,0,0,0-.122-.129c0,.077-.149.091-.149.091a.234.234,0,0,0-.167,0c-.093-.01,0,.087,0,.087.022.06.134.1.134.1l.1.052c-.008.02-.064.01-.064.01a.255.255,0,0,0-.175-.039.058.058,0,0,1-.09-.041c-.057.1.138.1.138.1.132,0,.172.059.172.059-.115-.01-.111.041-.111.041a.089.089,0,0,0-.109.061c-.053.02-.025.1-.025.1.118.134.01.1-.095.073l-.063-.017a.6.6,0,0,0-.088-.288c-.153-.222-.088-.273-.088-.273.1-.108-.023-.144-.023-.144.035.051-.009.074-.009.074-.09-.125-.163-.111-.163-.111.108.1.057.133.057.133-.141-.134-.213-.073-.213-.073a.087.087,0,0,1,.073.082.06.06,0,0,0,.072.036c.08.057,0,.062,0,.062a.024.024,0,0,0-.041-.006.623.623,0,0,1-.068,0c.019.1.174.092.181.088.125.19.032.252.032.252.1.186,0,.18,0,.18a.121.121,0,0,1,.088.052c.018.062-.07.051-.07.051a.335.335,0,0,0,.175.057c.066.05.1.066.108.075a.329.329,0,0,0,.179.039.065.065,0,0,0,.01.025.764.764,0,0,1-.4.133s-.026-.026-.064-.073c0,0-.072-.051-.091,0,0,0,.086.03.078.078l-.12-.022s.02.025.034.046c0,0,.017.056.133.031,0,0,.02.025.006.03a.062.062,0,0,0-.037.082.143.143,0,0,0,.075-.015.039.039,0,0,0,.02-.042h.053s.085-.012.047.071c0,0,.037.017.072-.066,0,0,.053-.03.077.047a.081.081,0,0,1,.1-.052.044.044,0,0,1-.018.036s.049.024.064-.026c0,0,.069-.03.075.027a.911.911,0,0,0,.036-.1s.117.045.1.081a.057.057,0,0,0,.054.007,2.235,2.235,0,0,0,.295.248.778.778,0,0,0-.155.007s-.041-.011-.043-.012-.1-.021-.128.018c0,0-.088.046-.038.19,0,0-.03.094-.081.043a.528.528,0,0,0-.175-.073s-.124-.042-.158-.121c0,0-.053-.088-.146,0,0,0,.064.015.084.051a.144.144,0,0,0,.076.036s.018.02.012.03-.186-.027-.128.092c0,0,.027-.041.093.01,0,0,.054.015.067-.03,0,0,.08.041-.015.113,0,0,.066.046.123-.052,0,0,.08.015.115.134,0,0,.082-.109.127.009,0,0,.036-.072.064.041a.1.1,0,0,0,.106,0s.021.036.116.013" transform="translate(-473.999 -311.368)" fill="#d90b1b"/>
          <path id="Path_20" data-name="Path 20" d="M455.725,324.512c0-.119-.078-.18-.23-.18l-.281.007-.277.006-.564-.013c-.094,0-.287,0-.287.186,0,.161.137.163.219.164l.069,0a.331.331,0,0,1,.3.185,1.307,1.307,0,0,1,.046.428v1.39L453,324.561l-.043-.054c-.124-.157-.146-.175-.391-.175h-1.115c-.087,0-.268,0-.268.167s.169.18.26.184l.036,0c.229.014.244.178.242.447v2.11a2.234,2.234,0,0,1-.054.642.2.2,0,0,1-.219.155l-.038,0c-.095,0-.272.01-.272.184,0,.117.084.186.224.186l.6-.025.6.025c.153,0,.243-.069.243-.186,0-.172-.189-.181-.28-.184l-.035,0c-.168-.012-.269-.048-.321-.2a2.814,2.814,0,0,1-.042-.6V325.3l2.409,3.006.027.036a.441.441,0,0,0,.344.231.249.249,0,0,0,.187-.057.238.238,0,0,0,.051-.177c0-.016,0-.033,0-.051v-3.139c0-.022,0-.045,0-.066,0-.229.026-.37.215-.394l.079,0a.347.347,0,0,0,.247-.059.153.153,0,0,0,.043-.112" transform="translate(-448.768 -316.975)" fill="#0059a9"/>
          <path id="Path_21" data-name="Path 21" d="M463.795,324.1a2.2,2.2,0,0,0-1.6.636,2.119,2.119,0,0,0-.656,1.507,2.035,2.035,0,0,0,.743,1.581,2.827,2.827,0,0,0,1.629.524,2.187,2.187,0,0,0,2.283-2.13,2.232,2.232,0,0,0-2.4-2.118m.19,3.915a1.186,1.186,0,0,1-.961-.725,2.745,2.745,0,0,1-.279-1.237c0-.562.211-1.626,1.011-1.626.936,0,1.24,1.318,1.24,1.956,0,.564-.211,1.632-1.011,1.632" transform="translate(-454.706 -316.84)" fill="#0059a9"/>
          <path id="Path_22" data-name="Path 22" d="M475.272,325.065c.08-.19.149-.354.353-.382l.055,0c.085-.005.244-.015.244-.162,0-.056-.022-.186-.23-.186l-.538.013-.544-.013c-.07,0-.256,0-.256.173s.16.174.256.176l.07,0c.07.007.187.039.187.169a1.227,1.227,0,0,1-.116.384l-.7,1.7-.808-1.929a.756.756,0,0,1-.07-.226.111.111,0,0,1,.1-.1l.079,0c.112,0,.3,0,.3-.183a.15.15,0,0,0-.042-.109.342.342,0,0,0-.242-.058h-.021l-.735.025-.9-.025h-.03a.3.3,0,0,0-.221.051.148.148,0,0,0-.042.109.183.183,0,0,0,.2.192h.012a.282.282,0,0,1,.212.081,2.08,2.08,0,0,1,.188.367l1.331,3.073.022.055c.048.121.085.217.28.217.161,0,.205-.089.246-.206l1.31-3.1.048-.112" transform="translate(-460.351 -316.973)" fill="#0059a9"/>
          <path id="Path_23" data-name="Path 23" d="M483.133,327.905l-.042,0a.237.237,0,0,1-.22-.13,1.934,1.934,0,0,1-.152-.312l-1.306-3.08-.029-.071c-.055-.141-.094-.215-.3-.215-.256,0-.3.117-.366.278l-.031.077-.736,1.737-.348.874-.064.168a4.707,4.707,0,0,1-.2.486c-.083.15-.126.158-.3.188-.085.013-.221.034-.221.185,0,.085.043.186.249.186l.6-.013.6.013c.228,0,.262-.116.262-.186,0-.172-.17-.2-.306-.214-.2-.027-.359-.049-.342-.238a1.29,1.29,0,0,1,.069-.259l.019-.056.012-.033c.045-.122.069-.207.248-.206h.9c.243-.009.25.108.3.245l.014.038.095.237a.657.657,0,0,1,.06.221c0,.058-.045.072-.179.085-.112.012-.264.027-.264.181,0,.124.086.186.255.186l.925-.025.773.025c.066,0,.268,0,.268-.186s-.148-.182-.236-.184m-1.943-1.22h-1.022l.512-1.265Z" transform="translate(-464.574 -316.84)" fill="#0059a9"/>
          <path id="Path_24" data-name="Path 24" d="M493.8,325.587l-.322-.108c-.265-.086-.547-.2-.547-.5,0-.319.344-.517.663-.517s.525.2.678.655c.019.061.064.207.221.207a.169.169,0,0,0,.124-.046.307.307,0,0,0,.055-.224v-.5a.269.269,0,0,0-.13-.29,2.345,2.345,0,0,0-.848-.171c-.818,0-1.7.51-1.7,1.333,0,.7.718,1,1.148,1.176l.129.051c.367.142.782.3.782.724,0,.454-.484.619-.808.619a.892.892,0,0,1-.622-.213.984.984,0,0,1-.233-.483l-.017-.059c-.03-.112-.08-.3-.255-.3a.156.156,0,0,0-.114.046.451.451,0,0,0-.066.311v.435c0,.177,0,.284.213.391a2.965,2.965,0,0,0,1.095.214,1.826,1.826,0,0,0,1.2-.392,1.406,1.406,0,0,0,.525-1.054c0-.83-.625-1.137-1.171-1.311" transform="translate(-472.07 -316.84)" fill="#0059a9"/>
          <path id="Path_25" data-name="Path 25" d="M503.361,327.035a.233.233,0,0,0-.206.164,1.8,1.8,0,0,1-.4.564,1.007,1.007,0,0,1-.631.228,1.236,1.236,0,0,1-1.033-.609,2.274,2.274,0,0,1-.308-1.188,2.117,2.117,0,0,1,.339-1.2,1.257,1.257,0,0,1,1-.548.929.929,0,0,1,.855.5c.093.136.175.254.31.254a.158.158,0,0,0,.174-.16l-.023-.178,0-.016s-.051-.321-.051-.321l0-.015c-.032-.18-.046-.225-.237-.281a3.826,3.826,0,0,0-.965-.135,3.17,3.17,0,0,0-1.812.542,2.014,2.014,0,0,0-.839,1.614,2.064,2.064,0,0,0,.826,1.614,2.888,2.888,0,0,0,1.7.479,2.457,2.457,0,0,0,1.243-.3.4.4,0,0,0,.226-.414l0-.033.018-.265c0-.019,0-.043,0-.068a.261.261,0,0,0-.053-.179.171.171,0,0,0-.129-.051" transform="translate(-476.401 -316.84)" fill="#0059a9"/>
          <path id="Path_26" data-name="Path 26" d="M523.8,324.484l-.069.683c-.009.1-.024.263-.187.263-.075,0-.18-.039-.245-.223-.175-.434-.236-.537-.743-.537-.118,0-.118,0-.118.131v2.743c0,.324,0,.421.329.474.081.012.247.038.247.2,0,.052-.02.173-.205.173l-.975-.025-.912.025c-.169,0-.2-.094-.2-.173s.037-.168.215-.2c.34-.057.355-.111.355-.438v-2.788a.381.381,0,0,0-.011-.106.418.418,0,0,0-.113-.008c-.393,0-.556.145-.793.489-.108.163-.211.245-.3.245s-.166-.073-.166-.192l.025-.127.008-.026.164-.633a.218.218,0,0,1,.218-.135c.392-.016.9.066,3.314.009,0,0,.194,0,.172.177" transform="translate(-488.035 -316.954)" fill="#0059a9"/>
          <path id="Path_27" data-name="Path 27" d="M535.873,327.9l-.042,0a.236.236,0,0,1-.22-.13,1.907,1.907,0,0,1-.152-.312l-1.306-3.08-.029-.071c-.055-.141-.093-.214-.3-.214-.256,0-.3.117-.366.278l-.031.077-.736,1.737-.349.874-.064.168a4.845,4.845,0,0,1-.2.485.3.3,0,0,1-.29.194.248.248,0,0,1-.06,0,.521.521,0,0,1-.057-.006c-.331-.052-.33-.15-.329-.474v-2.394c0-.355,0-.429.355-.487.083-.014.221-.036.221-.179,0-.115-.07-.173-.21-.173l-.451.012-.455.013-.975-.026c-.051,0-.2,0-.2.173,0,.142.145.163.223.175l.024,0c.328.057.326.154.324.477v2.393c0,.369,0,.426-.356.485-.177.03-.214.124-.214.2s.035.173.2.173l.912-.025.976.025h0a.813.813,0,0,0,.087,0l.6-.013.6.013c.228,0,.262-.116.262-.186,0-.172-.17-.2-.306-.215-.2-.027-.36-.049-.343-.239a1.267,1.267,0,0,1,.07-.259l.019-.056.012-.033c.045-.122.07-.207.249-.206h.9c.243-.009.25.108.3.245l.013.038.1.237a.658.658,0,0,1,.059.221c0,.058-.044.072-.178.085-.111.012-.264.027-.264.181,0,.123.086.186.255.186l.925-.025.773.025c.067,0,.268,0,.268-.186s-.148-.182-.236-.184m-2.966-1.22.513-1.265.509,1.265Z" transform="translate(-493.59 -316.839)" fill="#0059a9"/>
          <path id="Path_28" data-name="Path 28" d="M454.382,340.686c0-.062-.03-.137-.173-.137l-.2,0-.194,0-.4-.009a.244.244,0,0,0-.176.047.128.128,0,0,0-.036.095c0,.124.107.126.165.126l.047,0a.222.222,0,0,1,.2.123.924.924,0,0,1,.031.3v.943l-1.186-1.467-.031-.039c-.088-.112-.106-.126-.283-.126h-.782c-.06,0-.2,0-.2.128s.131.138.194.141h.024c.146.009.161.1.159.3v1.48a1.553,1.553,0,0,1-.037.447.131.131,0,0,1-.143.1h-.026c-.066,0-.2.007-.2.141,0,.087.065.142.169.142l.422-.018.418.018c.114,0,.181-.053.181-.142,0-.133-.145-.139-.207-.141H452.1c-.115-.009-.18-.032-.215-.136a1.962,1.962,0,0,1-.029-.416v-1.329l1.67,2.084.018.024a.32.32,0,0,0,.25.167.184.184,0,0,0,.139-.044.173.173,0,0,0,.039-.131c0-.012,0-.024,0-.036v-2.2c0-.016,0-.031,0-.045,0-.155.018-.25.141-.265l.054,0a.248.248,0,0,0,.182-.045.119.119,0,0,0,.034-.087" transform="translate(-448.77 -326.236)" fill="#0059a9"/>
          <path id="Path_29" data-name="Path 29" d="M459.933,340.382a1.555,1.555,0,0,0-1.132.45,1.5,1.5,0,0,0-.463,1.065,1.441,1.441,0,0,0,.525,1.119,2,2,0,0,0,1.15.37,1.546,1.546,0,0,0,1.613-1.506,1.577,1.577,0,0,0-1.693-1.5m-.027.253c.649,0,.858.917.858,1.361,0,.392-.146,1.134-.7,1.134a.822.822,0,0,1-.664-.5,1.913,1.913,0,0,1-.194-.862c0-.391.146-1.13.7-1.13" transform="translate(-452.879 -326.141)" fill="#0059a9"/>
          <path id="Path_30" data-name="Path 30" d="M474.236,342.6c-.117,0-.172.13-.2.185a.707.707,0,0,1-.671.375.385.385,0,0,1-.3-.11.652.652,0,0,1-.065-.34v-.54c0-.106,0-.118.092-.123l.19-.009a.3.3,0,0,1,.338.244c.033.085.069.183.189.183.089,0,.142-.065.142-.173-.009-.128-.018-.261-.018-.382l.018-.38a.176.176,0,0,0-.042-.131.13.13,0,0,0-.095-.036c-.12,0-.16.131-.175.181-.04.129-.091.187-.176.2a2.7,2.7,0,0,1-.365.016.132.132,0,0,1-.082-.018c-.017-.018-.016-.066-.016-.122v-.579c0-.112.013-.144.025-.151a.94.94,0,0,1,.362-.033.463.463,0,0,1,.318.077,1.067,1.067,0,0,1,.2.22l.006.01c.033.053.084.133.172.133a.139.139,0,0,0,.1-.036.167.167,0,0,0,.034-.13v-.416a.173.173,0,0,0-.03-.135.125.125,0,0,0-.095-.034l-.7.009-.692.009-.791-.018a.159.159,0,0,0-.063.012.243.243,0,0,0-.079-.012l-.378.009-.382-.009a.22.22,0,0,0-.156.044.123.123,0,0,0-.034.089c0,.132.124.133.191.135l.047,0c.056.006.122.029.122.108a.88.88,0,0,1-.08.265l-.481,1.169-.556-1.328a.531.531,0,0,1-.048-.154.066.066,0,0,1,.063-.058l.055,0c.077,0,.22,0,.22-.14a.116.116,0,0,0-.033-.084.246.246,0,0,0-.178-.044h-.015l-.516.018-.631-.018h-.021a.467.467,0,0,0-.073,0l-.022,0-.2,0-.193,0-.4-.009a.222.222,0,0,0-.164.044.125.125,0,0,0-.036.094c0,.128.116.129.172.13l.044,0c.1.013.163.035.2.1a.846.846,0,0,1,.034.308v1.189a.8.8,0,0,1-.127.543.727.727,0,0,1-.589.231.6.6,0,0,1-.582-.329,2.268,2.268,0,0,1-.059-.648v-1.068c0-.247,0-.291.239-.33h.007c.051-.008.159-.026.159-.136,0-.088-.054-.133-.16-.133l-.636.018-.684-.018a.165.165,0,0,0-.121.038.128.128,0,0,0-.034.095c0,.109.112.127.166.134l.016,0c.22.038.22.1.218.323v1.278a.872.872,0,0,0,.387.855,1.877,1.877,0,0,0,.914.207,1.409,1.409,0,0,0,.915-.268.909.909,0,0,0,.28-.815v-1.17a1.451,1.451,0,0,1,.025-.3c.027-.083.065-.1.16-.107l.036,0,.025,0c.017,0,.032,0,.042.006h.007c.072.009.108.014.141.053a1.411,1.411,0,0,1,.13.254l.934,2.157.016.039c.033.085.062.16.206.16.12,0,.154-.069.184-.152l.919-2.171.034-.079c.063-.151.109-.243.239-.261l.038,0a.4.4,0,0,0,.1-.015.6.6,0,0,0,.081.018c.231.036.231.125.23.363v1.634c0,.249,0,.294-.253.335-.1.017-.161.073-.161.154s.052.129.155.129l1.281-.018.987.018c.109,0,.116-.084.119-.125l.048-.352.007-.032a1.2,1.2,0,0,0,.029-.175.132.132,0,0,0-.146-.151" transform="translate(-457.1 -326.235)" fill="#0059a9"/>
          <path id="Path_31" data-name="Path 31" d="M493.071,340.574a2.225,2.225,0,0,0,.242-.013,2.361,2.361,0,0,1,.245-.013c.105,0,.16.045.16.133,0,.109-.107.127-.159.136h-.006c-.205.033-.235.07-.239.235,0,.05,0,.148,0,.153v1.583c0,.248.044.359.306.359a.669.669,0,0,0,.633-.371c.059-.092.109-.171.2-.171h0a.128.128,0,0,1,.133.151,1.8,1.8,0,0,1-.037.308,2.272,2.272,0,0,0-.034.229c-.009.122-.061.142-.132.142h-.033l-.05,0-1.012-.018-1.048.018h0c-.042,0-.155,0-.155-.124a.168.168,0,0,1,.161-.159c.239-.04.239-.073.239-.326v-1.577c0-.015,0-.03,0-.045v-.06c0-.225,0-.286-.217-.323l-.017,0c-.054-.008-.166-.025-.166-.134a.128.128,0,0,1,.034-.095.166.166,0,0,1,.121-.038l.488.022s.146.008.343,0" transform="translate(-472.15 -326.235)" fill="#0059a9"/>
          <path id="Path_32" data-name="Path 32" d="M487.081,340.574a2.239,2.239,0,0,0,.242-.013,2.347,2.347,0,0,1,.245-.013c.106,0,.16.045.16.133,0,.109-.107.127-.159.136h-.006c-.206.033-.235.07-.239.235,0,.05,0,.148,0,.153v1.583c0,.248.044.359.306.359a.669.669,0,0,0,.633-.371c.059-.092.109-.171.2-.171h0a.128.128,0,0,1,.133.151,1.8,1.8,0,0,1-.037.308,2.154,2.154,0,0,0-.033.229c-.009.122-.061.142-.133.142h-.033l-.05,0-1.012-.018-1.048.018h0c-.042,0-.155,0-.155-.124a.168.168,0,0,1,.161-.159c.24-.04.24-.073.239-.326v-1.577c0-.015,0-.03,0-.045v-.06c0-.225,0-.286-.217-.323l-.017,0c-.054-.008-.166-.025-.166-.134a.128.128,0,0,1,.034-.095.166.166,0,0,1,.121-.038l.488.022s.146.008.343,0" transform="translate(-468.729 -326.235)" fill="#0059a9"/>
          <path id="Path_33" data-name="Path 33" d="M500.451,342.6c-.117,0-.172.129-.2.185a.708.708,0,0,1-.672.375.386.386,0,0,1-.3-.11.652.652,0,0,1-.065-.34v-.54c0-.106,0-.118.092-.123l.19-.009a.3.3,0,0,1,.338.244c.033.085.069.183.189.183.089,0,.142-.065.142-.173-.009-.128-.018-.261-.018-.382l.017-.38a.173.173,0,0,0-.041-.13.128.128,0,0,0-.1-.036c-.119,0-.16.131-.175.181-.039.129-.09.187-.175.2a2.714,2.714,0,0,1-.365.016.13.13,0,0,1-.081-.018.222.222,0,0,1-.016-.122v-.579c0-.112.013-.144.025-.151a.935.935,0,0,1,.362-.033.462.462,0,0,1,.318.077,1.051,1.051,0,0,1,.2.22l.007.01c.033.053.084.133.173.133a.138.138,0,0,0,.1-.036.169.169,0,0,0,.034-.13v-.416a.173.173,0,0,0-.031-.135.127.127,0,0,0-.095-.034l-.7.009-.692.009-.791-.018a.146.146,0,0,0-.155.155c0,.057.061.1.183.115.231.036.231.125.23.363v1.634c0,.249,0,.294-.252.335-.1.017-.161.073-.161.154s.052.129.155.129l1.28-.018.987.018c.109,0,.116-.084.119-.125,0,0,.048-.352.048-.352l.007-.032a1.155,1.155,0,0,0,.03-.175.132.132,0,0,0-.146-.151" transform="translate(-475.513 -326.235)" fill="#0059a9"/>
          <path id="Path_34" data-name="Path 34" d="M509.74,342.6c-.117,0-.172.129-.2.185a.706.706,0,0,1-.67.375.386.386,0,0,1-.3-.11.652.652,0,0,1-.065-.34v-.54c0-.106,0-.118.093-.123l.19-.009a.3.3,0,0,1,.338.244c.033.085.07.183.189.183.088,0,.142-.065.142-.173-.009-.128-.019-.261-.019-.382l.018-.38a.172.172,0,0,0-.042-.13.127.127,0,0,0-.1-.036c-.12,0-.16.131-.175.181-.04.129-.091.187-.176.2a2.714,2.714,0,0,1-.365.016.13.13,0,0,1-.082-.018.225.225,0,0,1-.017-.122v-.579c0-.112.014-.144.025-.151a.937.937,0,0,1,.362-.033.464.464,0,0,1,.319.077,1.074,1.074,0,0,1,.2.22l.006.01c.033.053.083.133.172.133a.141.141,0,0,0,.1-.036.168.168,0,0,0,.033-.13v-.416a.174.174,0,0,0-.03-.135.128.128,0,0,0-.1-.034l-.7.009-.692.009-.791-.018a.146.146,0,0,0-.155.155c0,.057.061.1.183.115.231.036.231.125.23.363v1.634c0,.249,0,.294-.253.335-.1.017-.16.073-.16.154s.051.129.155.129l1.28-.018.987.018c.109,0,.115-.084.118-.125,0,0,.049-.352.049-.352l.006-.032a1.133,1.133,0,0,0,.03-.175.132.132,0,0,0-.147-.151" transform="translate(-480.818 -326.235)" fill="#0059a9"/>
          <path id="Path_35" data-name="Path 35" d="M505.581,343.768a.694.694,0,0,1-.063.151s-.017.042-.192.04h-.708c-.13,0-.154-.024-.154-.024a.069.069,0,0,1-.024-.056,1.819,1.819,0,0,1,.107-.286.206.206,0,0,1,.2-.1h.788a.123.123,0,0,1,.092.025.089.089,0,0,1,.021.051,1.488,1.488,0,0,1-.063.2" transform="translate(-479.208 -327.92)" fill="#0059a9"/>
          <path id="Path_36" data-name="Path 36" d="M509.994,339.051a.49.49,0,0,0,.111-.016l.032-.007.606-.133.025-.006c.154-.035.386-.09.386-.317a.264.264,0,0,0-.284-.262.933.933,0,0,0-.384.148l-.5.29-.021.012a.185.185,0,0,0-.115.158.133.133,0,0,0,.147.133" transform="translate(-482.295 -324.957)" fill="#0059a9"/>
          <path id="Path_37" data-name="Path 37" d="M515.95,342.445a.177.177,0,0,0-.154.121,1.25,1.25,0,0,1-.281.392.691.691,0,0,1-.435.158.855.855,0,0,1-.715-.422,1.581,1.581,0,0,1-.214-.827,1.48,1.48,0,0,1,.235-.835.868.868,0,0,1,.694-.379.642.642,0,0,1,.591.345c.068.1.126.184.228.184a.123.123,0,0,0,.132-.124.607.607,0,0,0-.016-.127l0-.011-.036-.226,0-.01c-.023-.126-.035-.164-.174-.206a2.7,2.7,0,0,0-.681-.1,2.236,2.236,0,0,0-1.278.383,1.423,1.423,0,0,0-.594,1.141,1.459,1.459,0,0,0,.584,1.141,2.042,2.042,0,0,0,1.2.339,1.733,1.733,0,0,0,.878-.212.292.292,0,0,0,.164-.3v-.023l.014-.187c0-.014,0-.03,0-.048a.193.193,0,0,0-.04-.133.13.13,0,0,0-.1-.039" transform="translate(-484.237 -326.141)" fill="#0059a9"/>
          <path id="Path_38" data-name="Path 38" d="M521.684,340.382a1.553,1.553,0,0,0-1.131.45,1.5,1.5,0,0,0-.464,1.065,1.441,1.441,0,0,0,.525,1.119,2,2,0,0,0,1.15.37,1.547,1.547,0,0,0,1.614-1.506,1.578,1.578,0,0,0-1.694-1.5m-.027.253c.649,0,.858.917.858,1.361,0,.392-.146,1.134-.7,1.134a.823.823,0,0,1-.664-.5,1.914,1.914,0,0,1-.194-.862c0-.391.145-1.13.7-1.13" transform="translate(-488.144 -326.141)" fill="#0059a9"/>
          <path id="Path_39" data-name="Path 39" d="M529.367,341.429l-.226-.075c-.232-.076-.375-.159-.375-.341,0-.216.234-.351.453-.351s.359.139.465.452c.013.041.047.153.166.153a.127.127,0,0,0,.1-.036.228.228,0,0,0,.042-.166v-.348a.2.2,0,0,0-.1-.213,1.649,1.649,0,0,0-.6-.121c-.579,0-1.2.362-1.2.947,0,.5.508.709.812.836l.09.036c.254.1.542.208.542.5,0,.309-.334.422-.557.422a.616.616,0,0,1-.428-.146.69.69,0,0,1-.161-.334l-.011-.041c-.022-.081-.059-.217-.19-.217a.122.122,0,0,0-.088.036.323.323,0,0,0-.05.226v.305c0,.123,0,.206.156.284a2.09,2.09,0,0,0,.772.152,1.294,1.294,0,0,0,.849-.278,1,1,0,0,0,.373-.748c0-.59-.443-.807-.83-.931" transform="translate(-492.687 -326.141)" fill="#0059a9"/>
          <path id="Path_40" data-name="Path 40" d="M534.757,341.429l-.227-.075c-.232-.076-.375-.159-.375-.341,0-.216.235-.351.453-.351s.359.139.466.452c.012.041.046.153.166.153a.127.127,0,0,0,.095-.036.222.222,0,0,0,.043-.166v-.348a.2.2,0,0,0-.1-.214,1.659,1.659,0,0,0-.6-.121c-.58,0-1.2.362-1.2.947,0,.5.509.709.812.836l.091.036c.254.1.541.208.541.5,0,.309-.332.422-.556.422a.618.618,0,0,1-.429-.146.683.683,0,0,1-.16-.334l-.013-.041c-.021-.081-.058-.217-.189-.217a.121.121,0,0,0-.088.036.322.322,0,0,0-.049.226v.305c0,.123,0,.206.155.284a2.1,2.1,0,0,0,.773.152,1.293,1.293,0,0,0,.849-.278,1,1,0,0,0,.373-.748c0-.59-.443-.807-.829-.931" transform="translate(-495.765 -326.141)" fill="#0059a9"/>
          <path id="Path_41" data-name="Path 41" d="M541.1,342.6c-.116,0-.171.129-.2.185a.707.707,0,0,1-.67.375.385.385,0,0,1-.3-.11.645.645,0,0,1-.066-.34v-.54c0-.106,0-.118.093-.123l.19-.009a.3.3,0,0,1,.339.244c.032.085.069.183.189.183.088,0,.141-.065.141-.173-.009-.128-.018-.26-.018-.382l.018-.379c0-.151-.1-.167-.137-.167-.119,0-.16.131-.175.181-.039.129-.09.187-.175.2a2.723,2.723,0,0,1-.365.016.133.133,0,0,1-.082-.018.225.225,0,0,1-.017-.122v-.579c0-.112.013-.144.025-.151a.941.941,0,0,1,.362-.033.464.464,0,0,1,.319.077,1.119,1.119,0,0,1,.2.22l.006.011c.033.053.084.133.173.133a.135.135,0,0,0,.1-.036.165.165,0,0,0,.034-.13v-.416a.173.173,0,0,0-.03-.135.125.125,0,0,0-.095-.034l-.7.009-.692.009-.792-.018a.147.147,0,0,0-.155.155c0,.057.062.1.184.115.23.036.23.125.229.363v1.634c0,.249,0,.294-.252.335-.1.017-.161.073-.161.154s.053.129.155.129l1.281-.018.986.018c.109,0,.117-.084.119-.125,0,0,.048-.352.049-.352l.006-.033a1.1,1.1,0,0,0,.03-.174.132.132,0,0,0-.147-.151" transform="translate(-498.725 -326.235)" fill="#0059a9"/>
        </g>
      </g>
    </g>
    <text id="Driver_Licence_Permis_de_conduire" data-name="Driver Licence / Permis de conduire" transform="translate(945 309)" fill="#707070" font-size="7" font-family="OpenSans-Bold, Open Sans" font-weight="700"><tspan x="0" y="0">Driver Licence / Permis de conduire</tspan></text>
    <text id="_4d" data-name="4d" transform="translate(896 326)" fill="#707070" font-size="6" font-family="OpenSans-Bold, Open Sans" font-weight="700"><tspan x="0" y="0">4d</tspan></text>
    <text id="_4a" data-name="4a" transform="translate(896 335)" fill="#707070" font-size="6" font-family="OpenSans-Bold, Open Sans" font-weight="700"><tspan x="0" y="0">4a</tspan></text>
    <text id="_4b" data-name="4b" transform="translate(896 345)" fill="#707070" font-size="6" font-family="OpenSans-Bold, Open Sans" font-weight="700"><tspan x="0" y="0">4b</tspan></text>
    <text id="_1" data-name="1" transform="translate(896 354)" fill="#707070" font-size="6" font-family="OpenSans-Bold, Open Sans" font-weight="700"><tspan x="0" y="0">1</tspan></text>
    <text id="_2" data-name="2" transform="translate(896 364)" fill="#707070" font-size="6" font-family="OpenSans-Bold, Open Sans" font-weight="700"><tspan x="0" y="0">2</tspan></text>
    <rect id="Rectangle_57" data-name="Rectangle 57" width="57" height="6" transform="translate(911 360)" fill="#c9c9c9"/>
    <text id="_8" data-name="8" transform="translate(896 378)" fill="#707070" font-size="6" font-family="OpenSans-Bold, Open Sans" font-weight="700"><tspan x="0" y="0">8</tspan></text>
    <text id="_15" data-name="15" transform="translate(896 414)" fill="#707070" font-size="6" font-family="OpenSans-Bold, Open Sans" font-weight="700"><tspan x="0" y="0">15</tspan></text>
    <text id="_18" data-name="18" transform="translate(896 423)" fill="#707070" font-size="6" font-family="OpenSans-Bold, Open Sans" font-weight="700"><tspan x="0" y="0">18</tspan></text>
    <text id="_9a" data-name="9a" transform="translate(896 442)" fill="#707070" font-size="6" font-family="OpenSans-Bold, Open Sans" font-weight="700"><tspan x="0" y="0">9a</tspan></text>
    <rect id="Rectangle_58" data-name="Rectangle 58" width="37" height="6" transform="translate(983 410)" fill="#c9c9c9"/>
    <text id="_16" data-name="16" transform="translate(968 414)" fill="#707070" font-size="6" font-family="OpenSans-Bold, Open Sans" font-weight="700"><tspan x="0" y="0">16</tspan></text>
    <text id="_5" data-name="5" transform="translate(832 458)" fill="#707070" font-size="6" font-family="OpenSans-Bold, Open Sans" font-weight="700"><tspan x="0" y="0">5</tspan></text>
    <rect id="Rectangle_60" data-name="Rectangle 60" width="33" height="5" transform="translate(949 454)" fill="#fff"/>
    <text id="_12" data-name="12" transform="translate(937 458)" fill="#707070" font-size="6" font-family="OpenSans-Bold, Open Sans" font-weight="700"><tspan x="0" y="0">12</tspan></text>
    <text id="_3" data-name="3" transform="translate(991 335)" fill="#707070" font-size="6" font-family="OpenSans-Bold, Open Sans" font-weight="700"><tspan x="0" y="0">3</tspan></text>
    <text id="NS" transform="translate(1080 309)" fill="#0059a9" font-size="7" font-family="OpenSans-Bold, Open Sans" font-weight="700"><tspan x="0" y="0">NS</tspan></text>
    <rect id="Rectangle_64" data-name="Rectangle 64" width="37" height="6" transform="translate(911 429)" fill="#c9c9c9"/>
    <text id="_9" data-name="9" transform="translate(896 432)" fill="#707070" font-size="6" font-family="OpenSans-Bold, Open Sans" font-weight="700"><tspan x="0" y="0">9</tspan></text>
    <g id="Group_126" data-name="Group 126" transform="translate(-228.625 -106)">
      <g transform="matrix(1, 0, 0, 1, 1050.63, 400)" filter="url(#Path_43)">
        <g id="Path_43-2" data-name="Path 43" transform="translate(121 46.73)" fill="#f8d44c" stroke-linejoin="round">
          <path d="M 137.2824249267578 28.16016578674316 L 28.82302474975586 28.16016578674316 C 26.36307907104492 28.16016578674316 24.25716972351074 27.24100112915039 22.73298835754395 25.5020751953125 C 21.27978897094727 23.84412956237793 20.47947883605957 21.54329299926758 20.47947883605957 19.0234375 L 20.47947883605957 18.77425575256348 L 20.24977111816406 18.6777286529541 L 6.674965858459473 12.97283172607422 L 20.18820571899414 9.877256393432617 L 20.47947883605957 9.810547828674316 L 20.47947883605957 9.51172924041748 C 20.47947883605957 6.991874694824219 21.27978897094727 4.691038608551025 22.73298835754395 3.033092975616455 C 24.25716972351074 1.29416561126709 26.36307907104492 0.3750020265579224 28.82302474975586 0.3750020265579224 L 137.2824249267578 0.3750020265579224 C 142.4344787597656 0.3750020265579224 146.6259765625 4.473729133605957 146.6259765625 9.51172924041748 L 146.6259765625 19.0234375 C 146.6259765625 24.06143760681152 142.4344787597656 28.16016578674316 137.2824249267578 28.16016578674316 Z" stroke="none"/>
          <path d="M 28.82302093505859 0.7500019073486328 C 26.47425842285156 0.7500019073486328 24.46588134765625 1.624965667724609 23.01498413085938 3.280275344848633 C 21.62174987792969 4.869802474975586 20.85447692871094 7.08283805847168 20.85447692871094 9.511730194091797 C 20.85447692871094 9.861419677734375 20.61280822753906 10.16471099853516 20.27195739746094 10.24278450012207 L 7.893875122070313 13.07831859588623 L 20.39506530761719 18.3320198059082 C 20.67340087890625 18.44900131225586 20.85447692871094 18.72149276733398 20.85447692871094 19.0234375 C 20.85447692871094 21.45232963562012 21.62174987792969 23.66536521911621 23.01498413085938 25.25489234924316 C 24.46588134765625 26.91020202636719 26.47425842285156 27.78516578674316 28.82302093505859 27.78516578674316 L 137.2824249267578 27.78516578674316 C 142.2276916503906 27.78516578674316 146.2509765625 23.85467529296875 146.2509765625 19.0234375 L 146.2509765625 9.511730194091797 C 146.2509765625 4.680492401123047 142.2276916503906 0.7500019073486328 137.2824249267578 0.7500019073486328 L 28.82302093505859 0.7500019073486328 M 28.82302093505859 1.9073486328125e-06 L 137.2824249267578 1.9073486328125e-06 C 142.6498260498047 1.9073486328125e-06 147.0009765625 4.258546829223633 147.0009765625 9.511730194091797 L 147.0009765625 19.0234375 C 147.0009765625 24.27662086486816 142.6498260498047 28.53516578674316 137.2824249267578 28.53516578674316 L 28.82302093505859 28.53516578674316 C 23.45561218261719 28.53516578674316 20.10447692871094 24.27662086486816 20.10447692871094 19.0234375 L 5.4560546875 12.86734771728516 L 20.10447692871094 9.511730194091797 C 20.10447692871094 4.258546829223633 23.45561218261719 1.9073486328125e-06 28.82302093505859 1.9073486328125e-06 Z" stroke="none" fill="#d6a70b"/>
        </g>
      </g>
      <text id="_1._Last_Name" data-name="1. Last Name" transform="translate(1202.625 467)" fill="#505050" font-size="16" font-family="OpenSans-Bold, Open Sans" font-weight="700"><tspan x="0" y="0">1. Last Name</tspan></text>
    </g>
    <g id="Group_127" data-name="Group 127" transform="translate(-228.625 -74)">
      <g transform="matrix(1, 0, 0, 1, 1050.63, 368)" filter="url(#Path_42)">
        <g id="Path_42-2" data-name="Path 42" transform="translate(121 78.73)" fill="#f8d44c" stroke-linejoin="round">
          <path d="M 146.9491119384766 28.1601734161377 L 28.82303237915039 28.1601734161377 C 26.36307144165039 28.1601734161377 24.25717163085938 27.24101257324219 22.73299217224121 25.50207328796387 C 21.27979278564453 23.8441333770752 20.47947311401367 21.54331207275391 20.47947311401367 19.02345275878906 L 20.47947311401367 13.81747245788574 L 20.47947311401367 13.67143249511719 L 20.38071250915527 13.56385326385498 L 2.004230976104736 -6.451536655426025 C 15.2554874420166 2.748939514160156 18.91622924804688 4.078646659851074 20.82707214355469 4.078853130340576 C 20.82715034484863 4.078853130340576 20.82731819152832 4.078853130340576 20.82739639282227 4.078853130340576 C 22.09969139099121 4.078853130340576 22.65764236450195 3.372634887695313 23.1500129699707 2.749512910842896 C 23.36695289611816 2.474932909011841 23.57185173034668 2.215592861175537 23.83711242675781 1.995032906532288 C 25.06191253662109 0.964992880821228 26.87863159179688 0.3749929070472717 28.82303237915039 0.3749929070472717 L 146.9491119384766 0.3749929070472717 C 152.1011657714844 0.3749929070472717 156.2926788330078 4.473712921142578 156.2926788330078 9.511713027954102 L 156.2926788330078 19.02345275878906 C 156.2926788330078 24.06145286560059 152.1011657714844 28.1601734161377 146.9491119384766 28.1601734161377 Z" stroke="none"/>
          <path d="M 4.514511108398438 -4.271808624267578 L 20.65693664550781 13.31025314331055 C 20.78396606445313 13.44861221313477 20.85447692871094 13.6296329498291 20.85447692871094 13.81747245788574 L 20.85447692871094 19.02345275878906 C 20.85447692871094 21.45233345031738 21.62174987792969 23.66537284851074 23.01496887207031 25.25489234924316 C 24.46586608886719 26.91021347045898 26.47427368164063 27.7851734161377 28.82302856445313 27.7851734161377 L 146.9491119384766 27.7851734161377 C 151.8943786621094 27.7851734161377 155.9176483154297 23.85467338562012 155.9176483154297 19.02345275878906 L 155.9176483154297 9.511713027954102 C 155.9176483154297 4.680493354797363 151.8943786621094 0.7499923706054688 146.9491119384766 0.7499923706054688 L 28.82302856445313 0.7499923706054688 C 26.96549987792969 0.7499923706054688 25.23675537109375 1.307912826538086 24.07687377929688 2.28337287902832 C 23.84176635742188 2.478872299194336 23.64866638183594 2.72325325012207 23.44422912597656 2.981973648071289 C 22.92605590820313 3.637733459472656 22.28115844726563 4.453852653503418 20.82711791992188 4.453852653503418 C 18.99906921386719 4.453852653503418 15.65745544433594 3.301645278930664 4.514511108398438 -4.271808624267578 M -0.5990142822265625 -8.732427597045898 C 13.45521545410156 1.188226699829102 18.54170227050781 3.703847885131836 20.82710266113281 3.703847885131836 C 22.41189575195313 3.703847885131836 22.64961242675781 2.494771957397461 23.59735107421875 1.706693649291992 C 24.78788757324219 0.7054328918457031 26.63847351074219 -7.62939453125e-06 28.82302856445313 -7.62939453125e-06 L 146.9491119384766 -7.62939453125e-06 C 152.3165130615234 -7.62939453125e-06 156.6676483154297 4.258532524108887 156.6676483154297 9.511713027954102 L 156.6676483154297 19.02345275878906 C 156.6676483154297 24.27663230895996 152.3165130615234 28.53517150878906 146.9491119384766 28.53517150878906 L 28.82302856445313 28.53517150878906 C 23.45561218261719 28.53517150878906 20.10447692871094 24.27663230895996 20.10447692871094 19.02345275878906 L 20.10447692871094 13.81747245788574 L -0.5990142822265625 -8.732427597045898 Z" stroke="none" fill="#d6a70b"/>
        </g>
      </g>
      <text id="_2._First_Names" data-name="2. First Names" transform="translate(1202.625 467)" fill="#505050" font-size="16" font-family="OpenSans-Bold, Open Sans" font-weight="700"><tspan x="0" y="0">2. First Names</tspan></text>
    </g>
    <g id="Path_48" data-name="Path 48" transform="translate(822 294)" fill="none">
      <path d="M8,0H272a8,8,0,0,1,8,8V161a8,8,0,0,1-8,8H8a8,8,0,0,1-8-8V8A8,8,0,0,1,8,0Z" stroke="none"/>
      <path d="M 8 1 C 4.140167236328125 1 1 4.140182495117188 1 8 L 1 161 C 1 164.8598175048828 4.140167236328125 168 8 168 L 272 168 C 275.8598327636719 168 279 164.8598175048828 279 161 L 279 8 C 279 4.140182495117188 275.8598327636719 1 272 1 L 8 1 M 8 0 L 272 0 C 276.4182739257813 0 280 3.581710815429688 280 8 L 280 161 C 280 165.4182891845703 276.4182739257813 169 272 169 L 8 169 C 3.58172607421875 169 0 165.4182891845703 0 161 L 0 8 C 0 3.581710815429688 3.58172607421875 0 8 0 Z" stroke="none" fill="#707070"/>
    </g>
  </g>
</svg>
