<svg xmlns="http://www.w3.org/2000/svg" xmlns:xlink="http://www.w3.org/1999/xlink" width="418" height="151" viewBox="0 0 418 151">
  <defs>
    <filter id="Rectangle_85" x="0" y="0" width="418" height="151" filterUnits="userSpaceOnUse">
      <feOffset dy="3" input="SourceAlpha"/>
      <feGaussianBlur stdDeviation="3" result="blur"/>
      <feFlood flood-opacity="0.161"/>
      <feComposite operator="in" in2="blur"/>
      <feComposite in="SourceGraphic"/>
    </filter>
    <clipPath id="clip-path">
      <rect id="Rectangle_84" data-name="Rectangle 84" width="398" height="131" fill="#fff" stroke="#707070" stroke-width="1"/>
    </clipPath>
    <clipPath id="clip-path-2">
      <rect id="Rectangle_56" data-name="Rectangle 56" width="106.138" height="46.457" fill="none"/>
    </clipPath>
    <filter id="Path_42" x="108.093" y="51.296" width="61.612" height="75.62" filterUnits="userSpaceOnUse">
      <feOffset dy="2" input="SourceAlpha"/>
      <feGaussianBlur stdDeviation="4.5" result="blur-2"/>
      <feFlood flood-color="#3a2e13" flood-opacity="0.302"/>
      <feComposite operator="in" in2="blur-2"/>
      <feComposite in="SourceGraphic"/>
    </filter>
    <filter id="Path_45" x="194.213" y="51.296" width="61.612" height="75.62" filterUnits="userSpaceOnUse">
      <feOffset dy="2" input="SourceAlpha"/>
      <feGaussianBlur stdDeviation="4.5" result="blur-3"/>
      <feFlood flood-color="#3a2e13" flood-opacity="0.302"/>
      <feComposite operator="in" in2="blur-3"/>
      <feComposite in="SourceGraphic"/>
    </filter>
    <filter id="Path_46" x="260.926" y="51.296" width="61.612" height="75.62" filterUnits="userSpaceOnUse">
      <feOffset dy="2" input="SourceAlpha"/>
      <feGaussianBlur stdDeviation="4.5" result="blur-4"/>
      <feFlood flood-color="#3a2e13" flood-opacity="0.302"/>
      <feComposite operator="in" in2="blur-4"/>
      <feComposite in="SourceGraphic"/>
    </filter>
  </defs>
  <g id="Group_154" data-name="Group 154" transform="translate(-965 -291)">
    <g id="Group_147" data-name="Group 147" transform="translate(975 298)">
      <g transform="matrix(1, 0, 0, 1, -10, -7)" filter="url(#Rectangle_85)">
        <g id="Rectangle_85-2" data-name="Rectangle 85" transform="translate(10 7)" fill="#fff" stroke="#707070" stroke-width="1">
          <rect width="398" height="131" stroke="none"/>
          <rect x="-0.5" y="-0.5" width="399" height="132" fill="none"/>
        </g>
      </g>
      <g id="Mask_Group_1" data-name="Mask Group 1" transform="translate(0)" clip-path="url(#clip-path)">
        <g id="Group_146" data-name="Group 146" transform="translate(-120.083 -20.62)">
          <g id="Rectangle_37" data-name="Rectangle 37" transform="translate(0.083 -0.379)" fill="none" stroke="#707070" stroke-width="1">
            <rect width="662" height="399" rx="8" stroke="none"/>
            <rect x="0.5" y="0.5" width="661" height="398" rx="7.5" fill="none"/>
          </g>
          <path id="Rectangle_59" data-name="Rectangle 59" d="M0,0H662a0,0,0,0,1,0,0V24a8,8,0,0,1-8,8H8a8,8,0,0,1-8-8V0A0,0,0,0,1,0,0Z" transform="translate(0.083 366.621)" fill="#d7e0f9"/>
          <g id="Rectangle_38" data-name="Rectangle 38" transform="translate(29.083 64.621)" fill="#d7e0f9" stroke="#707070" stroke-width="0.5">
            <rect width="125" height="138" rx="2" stroke="none"/>
            <rect x="0.25" y="0.25" width="124.5" height="137.5" rx="1.75" fill="none"/>
          </g>
          <g id="Rectangle_39" data-name="Rectangle 39" transform="translate(570.083 288.621)" fill="#d7e0f9" stroke="#707070" stroke-width="0.5">
            <rect width="63" height="70" rx="2" stroke="none"/>
            <rect x="0.25" y="0.25" width="62.5" height="69.5" rx="1.75" fill="none"/>
          </g>
          <rect id="Rectangle_40" data-name="Rectangle 40" width="206" height="12" transform="translate(45.083 377.621)" fill="#fff"/>
          <rect id="Rectangle_41" data-name="Rectangle 41" width="63" height="12" transform="translate(570.083 377.621)" fill="#fff"/>
          <rect id="Rectangle_43" data-name="Rectangle 43" width="172" height="12" transform="translate(211.083 87.621)" fill="#c9c9c9"/>
          <rect id="Rectangle_45" data-name="Rectangle 45" width="173" height="12" transform="translate(418.083 87.621)" fill="#c9c9c9"/>
          <rect id="Rectangle_46" data-name="Rectangle 46" width="143" height="14" transform="translate(211.083 110.621)" fill="#c9c9c9"/>
          <rect id="Rectangle_47" data-name="Rectangle 47" width="108" height="12" transform="translate(211.083 134.621)" fill="#c9c9c9"/>
          <rect id="Rectangle_48" data-name="Rectangle 48" width="172" height="13" transform="translate(211.083 191.621)" fill="#c9c9c9"/>
          <rect id="Rectangle_49" data-name="Rectangle 49" width="172" height="13" transform="translate(211.083 216.621)" fill="#c9c9c9"/>
          <rect id="Rectangle_50" data-name="Rectangle 50" width="120" height="14" transform="translate(211.083 238.621)" fill="#c9c9c9"/>
          <rect id="Rectangle_51" data-name="Rectangle 51" width="87" height="14" transform="translate(211.083 274.621)" fill="#c9c9c9"/>
          <rect id="Rectangle_52" data-name="Rectangle 52" width="87" height="12" transform="translate(211.083 297.621)" fill="#c9c9c9"/>
          <rect id="Rectangle_54" data-name="Rectangle 54" width="87" height="13" transform="translate(211.083 341.621)" fill="#c9c9c9"/>
          <g id="Group_115" data-name="Group 115" transform="translate(38.991 9.445)">
            <rect id="Rectangle_55" data-name="Rectangle 55" width="94.797" height="0.419" transform="translate(5.601 30.181)" fill="#0059a9"/>
            <g id="Group_114" data-name="Group 114" transform="translate(0 0)">
              <g id="Group_113" data-name="Group 113" transform="translate(0 0)" clip-path="url(#clip-path-2)">
                <path id="Path_15" data-name="Path 15" d="M514.951,324.176l.112.007c-.106-.107-.246-.235-.423-.383-.786-.835-2.912-3.607-3.071-9.338a18.27,18.27,0,0,0-.21-2.764,18.082,18.082,0,0,0-7.038.251c-2.945.937-3.384,1.827-8.729-.2s-13.349-1.53-14.18-1.505c.676,1.347.681,1.344,1.679,3.077,0,0,3.713,6.171,4.361,10.267.153,1.018.209,1.874.209,1.874.19-.1,3.591-.992,3.591-.992a51.165,51.165,0,0,1,6.711-1.635c2.557-.272,2.627.583,5.689.6,1.742.012,2.423-.6,4.644-.378h0a25.882,25.882,0,0,1,5.127,1.232,7.706,7.706,0,0,1,1.525-.121" transform="translate(-445.152 -307.141)" fill="#fff"/>
                <path id="Path_16" data-name="Path 16" d="M495.042,317.687a19.465,19.465,0,0,1-1-3.525c-7.31-4.335-12.631-3.916-12.631-3.916.676,1.347.681,1.344,1.679,3.077,8.195,1.478,11.21,4.463,11.21,4.463a19.646,19.646,0,0,0-6.849,5.8c.153,1.018.209,1.874.209,1.874.19-.1,3.591-.992,3.591-.992a11.779,11.779,0,0,1,5.6-4.538,5.4,5.4,0,0,1-1.809-2.248" transform="translate(-445.152 -307.14)" fill="#0059a9"/>
                <path id="Path_17" data-name="Path 17" d="M514.814,324.164c-.928-.936-4.43-3.476-12.547-6.612,0,0,1.854-2.333,9.053-3.109a18.262,18.262,0,0,0-.21-2.764s-4.446-.5-10.156,3a5.967,5.967,0,0,0,.425,2.678,2.941,2.941,0,0,1-.175,2.809,25.479,25.479,0,0,1,6.845,2.882,25.89,25.89,0,0,1,5.128,1.232c-.069.015-.1.025-.1.025a5.184,5.184,0,0,0-3.991,4.907,4.8,4.8,0,0,0,1.753,3.734,6.677,6.677,0,0,0,3.847,1.238,5.164,5.164,0,0,0,5.39-5.031c0-3.091-2.638-4.827-5.259-4.988m.049,9.231a2.8,2.8,0,0,1-2.27-1.714,6.486,6.486,0,0,1-.658-2.919c0-1.328.5-3.84,2.388-3.84,2.211,0,2.928,3.111,2.928,4.618,0,1.335-.5,3.855-2.388,3.855" transform="translate(-444.902 -307.122)" fill="#0059a9"/>
                <path id="Path_18" data-name="Path 18" d="M501.47,317.328a5.966,5.966,0,0,1-.425-2.678v0a3.122,3.122,0,0,1-.8.059,5.831,5.831,0,0,1-1.407-.265,16.081,16.081,0,0,0-2.339-.521,6.586,6.586,0,0,0-2.621.2h0a19.429,19.429,0,0,0,1,3.525,5.39,5.39,0,0,0,1.81,2.247,5.447,5.447,0,0,0,1.365.744,4.676,4.676,0,0,1,1.419.749,3.738,3.738,0,0,0,1.751-1.155c.023-.029.045-.06.066-.09a2.942,2.942,0,0,0,.176-2.808" transform="translate(-444.992 -307.093)" fill="#ffc600"/>
                <path id="Path_19" data-name="Path 19" d="M498.244,319.424s-.509-.567.289-.386c0,0,.078.006.075,0,.069.011.14.009.148.077a.534.534,0,0,0,.292.325,1.119,1.119,0,0,0,.48.059.677.677,0,0,1-.242.344s-.159.053-.143.346a.443.443,0,0,1-.327-.073s-.24-.075-.241.119c0,0,.2-.061.271.025a.215.215,0,0,0-.143.315s.2.074.424-.229c0,0,.047.024.049.06,0,0-.276.061.185.39,0,0-.092-.34.065-.352a.346.346,0,0,1,.231.242s.049-.229.127-.254c0,0-.323-.293.045-.243,0,0,.063-.035-.075-.134,0,0,.147-.072.237,0,0,0-.049-.061-.017-.108h.224s-.319-.122.123-.3c0,0-.2-.1,0-.134,0,0,.088,0,.062-.23a.484.484,0,0,1-.767-.378.419.419,0,0,1,.537.232s.077-.06-.019-.28c0,0,.277-.134.106-.834,0,0-.02-.059.159-.147,0,0,.32-.2-.254-.375,0,0,.228.262-.04.349a1.6,1.6,0,0,1-.334-1.5,1.491,1.491,0,0,0,.061-.761.709.709,0,0,0-1.018-.437s.4.1.373.426a1.528,1.528,0,0,0-.08,1.041,2.579,2.579,0,0,0,.54.911,1.85,1.85,0,0,1,.25.357.748.748,0,0,0-.272-.085s-.389-.043.021.364c-.044-.046-.228-.267.331-.124,0,0,.343.624-.043.719a.543.543,0,0,1-.441-.208s-.361-.425-.483-.584a1.525,1.525,0,0,1-.505-1.035s-.019-.231.155-.284v0a.044.044,0,0,0,.007-.02c-.42-.431-.154-.674-.154-.674a.1.1,0,0,0,.106-.047,2,2,0,0,1-.253-.3c-.007-.049.1-.109.1-.109l-.143-.145c-.118-.05-.152-.4-.152-.4l-.118.023a.99.99,0,0,0-.289-.3c0,.182-.352.215-.352.215a.554.554,0,0,0-.394-.01c-.221-.024.005.206.005.206.052.142.317.244.317.244l.233.123c-.019.048-.152.023-.152.023a.6.6,0,0,0-.413-.092.136.136,0,0,1-.212-.1c-.135.241.325.232.325.232.312,0,.406.139.406.139-.272-.024-.262.1-.262.1a.209.209,0,0,0-.257.145c-.125.047-.059.247-.059.247.279.316.023.241-.224.172l-.149-.04a1.416,1.416,0,0,0-.209-.681c-.362-.524-.209-.644-.209-.644.228-.254-.054-.339-.054-.339.083.122-.022.175-.022.175-.213-.3-.385-.261-.385-.261.254.243.134.315.134.315-.333-.316-.5-.171-.5-.171a.2.2,0,0,1,.173.195.141.141,0,0,0,.17.086c.188.134.006.146.006.146a.056.056,0,0,0-.1-.015,1.458,1.458,0,0,1-.161-.009c.046.236.411.218.428.207.3.45.076.594.076.594.242.439,0,.425,0,.425a.287.287,0,0,1,.209.122c.043.146-.166.12-.166.12a.791.791,0,0,0,.413.136c.155.118.228.155.255.176a.777.777,0,0,0,.422.091.153.153,0,0,0,.024.059,1.8,1.8,0,0,1-.952.315s-.061-.061-.152-.171c0,0-.171-.121-.214,0,0,0,.2.072.185.185l-.284-.052s.048.06.08.109c0,0,.039.132.315.074,0,0,.047.06.014.072a.146.146,0,0,0-.088.194.338.338,0,0,0,.177-.034.091.091,0,0,0,.047-.1h.125s.2-.029.11.168c0,0,.086.041.169-.155,0,0,.126-.072.182.111a.191.191,0,0,1,.238-.123.1.1,0,0,1-.044.085s.117.056.152-.061c0,0,.162-.071.177.063a2.163,2.163,0,0,0,.084-.234s.276.106.225.19a.136.136,0,0,0,.129.016,5.278,5.278,0,0,0,.7.586,1.841,1.841,0,0,0-.367.016c-.01-.006-.1-.025-.1-.029s-.244-.051-.3.042c0,0-.209.108-.09.448,0,0-.071.223-.192.1a1.247,1.247,0,0,0-.414-.171s-.293-.1-.374-.284c0,0-.125-.207-.344,0,0,0,.152.035.2.121a.339.339,0,0,0,.18.086s.043.048.027.072c0,0-.44-.063-.3.218,0,0,.063-.1.221.024,0,0,.127.036.159-.072,0,0,.188.1-.034.267,0,0,.155.109.29-.122,0,0,.189.036.271.317,0,0,.195-.258.3.022,0,0,.085-.17.15.1a.235.235,0,0,0,.25,0s.051.084.273.03" transform="translate(-444.974 -307.085)" fill="#d90b1b"/>
                <path id="Path_20" data-name="Path 20" d="M461.966,324.756c0-.281-.183-.424-.543-.424l-.663.016-.654.014-1.331-.03c-.221,0-.679,0-.679.439,0,.38.324.384.518.387l.162.007a.782.782,0,0,1,.708.436,3.085,3.085,0,0,1,.108,1.011v3.283l-4.056-5.022-.1-.129c-.293-.371-.344-.412-.923-.412h-2.632c-.206,0-.633,0-.633.395,0,.41.4.425.615.434l.085,0c.54.032.576.42.572,1.054V331.2a5.272,5.272,0,0,1-.129,1.516.477.477,0,0,1-.516.366l-.089,0c-.224.008-.643.024-.643.435,0,.275.2.438.529.438l1.421-.06,1.406.06c.36,0,.574-.163.574-.438,0-.407-.447-.427-.661-.435l-.083,0c-.4-.029-.636-.115-.759-.483a6.645,6.645,0,0,1-.1-1.413v-4.581l5.688,7.1.063.084a1.041,1.041,0,0,0,.812.546.588.588,0,0,0,.442-.136.561.561,0,0,0,.12-.417c0-.038,0-.079,0-.12l0-.14v-7.273c0-.053,0-.105,0-.155,0-.542.062-.873.508-.931l.186,0a.82.82,0,0,0,.584-.14.36.36,0,0,0,.1-.263" transform="translate(-445.54 -306.959)" fill="#0059a9"/>
                <path id="Path_21" data-name="Path 21" d="M466.868,324.1a5.2,5.2,0,0,0-3.783,1.5,5,5,0,0,0-1.549,3.559,4.806,4.806,0,0,0,1.754,3.734,6.675,6.675,0,0,0,3.846,1.238,5.165,5.165,0,0,0,5.391-5.031c0-3.249-2.916-5-5.66-5m.449,9.245a2.8,2.8,0,0,1-2.268-1.713,6.481,6.481,0,0,1-.658-2.92c0-1.327.5-3.84,2.388-3.84,2.211,0,2.927,3.111,2.927,4.618,0,1.333-.5,3.854-2.388,3.854" transform="translate(-445.407 -306.962)" fill="#0059a9"/>
                <path id="Path_22" data-name="Path 22" d="M480.512,326.066c.188-.449.352-.836.835-.9l.131-.011c.2-.012.575-.035.575-.382,0-.132-.052-.439-.544-.439l-1.271.03-1.285-.03c-.166,0-.6,0-.6.409s.379.411.6.415l.164.008c.166.017.443.092.443.4a2.9,2.9,0,0,1-.273.907l-1.652,4.019-1.907-4.555a1.786,1.786,0,0,1-.166-.535.263.263,0,0,1,.246-.235l.187-.007c.263,0,.7,0,.7-.431a.355.355,0,0,0-.1-.257.807.807,0,0,0-.571-.138h-.051l-1.736.06-2.124-.06h-.072a.715.715,0,0,0-.522.121.35.35,0,0,0-.1.258.433.433,0,0,0,.474.454l.027,0a.666.666,0,0,1,.5.191,4.915,4.915,0,0,1,.444.866l3.142,7.257.052.131c.112.287.2.513.661.513.38,0,.484-.211.581-.486,0,.006,3.094-7.309,3.094-7.309l.114-.264" transform="translate(-445.28 -306.959)" fill="#0059a9"/>
                <path id="Path_23" data-name="Path 23" d="M489.009,333.091l-.1,0a.56.56,0,0,1-.52-.307,4.559,4.559,0,0,1-.359-.736l-3.083-7.273-.068-.167c-.131-.333-.222-.507-.7-.507-.6,0-.713.276-.864.657l-.073.181-1.737,4.1-.822,2.064-.151.4a11.1,11.1,0,0,1-.472,1.147c-.2.354-.3.373-.72.445-.2.03-.521.081-.521.437,0,.2.1.439.587.439l1.407-.03,1.406.03c.538,0,.619-.274.619-.439,0-.407-.4-.462-.723-.506-.472-.065-.849-.115-.808-.563a3.048,3.048,0,0,1,.164-.612l.045-.133.029-.077c.106-.288.163-.489.586-.487h2.131c.574-.02.59.255.711.579l.033.089.224.559a1.549,1.549,0,0,1,.141.523c0,.137-.105.17-.422.2-.263.027-.624.063-.624.426,0,.292.2.439.6.439l2.185-.06,1.825.06c.157,0,.633,0,.633-.439,0-.419-.348-.429-.557-.434m-4.588-2.88h-2.414l1.208-2.987Z" transform="translate(-445.185 -306.962)" fill="#0059a9"/>
                <path id="Path_24" data-name="Path 24" d="M496.341,327.618l-.761-.254c-.625-.2-1.291-.479-1.291-1.184,0-.754.812-1.221,1.566-1.221s1.24.478,1.6,1.546c.046.144.151.489.523.489a.4.4,0,0,0,.294-.109.725.725,0,0,0,.131-.53v-1.172a.636.636,0,0,0-.307-.684,5.537,5.537,0,0,0-2-.4c-1.931,0-4.015,1.2-4.015,3.147,0,1.646,1.7,2.355,2.71,2.777l.3.119c.866.334,1.846.712,1.846,1.71,0,1.073-1.143,1.462-1.909,1.462a2.107,2.107,0,0,1-1.47-.5,2.323,2.323,0,0,1-.551-1.139l-.04-.139c-.071-.263-.189-.7-.6-.7a.369.369,0,0,0-.269.108,1.064,1.064,0,0,0-.156.734l0,.09v.937c0,.417-.006.669.5.924a7,7,0,0,0,2.585.506,4.311,4.311,0,0,0,2.832-.925,3.321,3.321,0,0,0,1.241-2.49c0-1.961-1.477-2.685-2.764-3.1" transform="translate(-445.017 -306.962)" fill="#0059a9"/>
                <path id="Path_25" data-name="Path 25" d="M508.581,331.037a.55.55,0,0,0-.487.387,4.256,4.256,0,0,1-.953,1.333,2.377,2.377,0,0,1-1.49.539,2.919,2.919,0,0,1-2.44-1.439,5.369,5.369,0,0,1-.728-2.8,5,5,0,0,1,.8-2.83,2.968,2.968,0,0,1,2.368-1.294,2.193,2.193,0,0,1,2.018,1.18c.221.322.413.6.732.6a.373.373,0,0,0,.41-.379l-.055-.421-.008-.038c0,.005-.119-.758-.119-.758l-.007-.035c-.075-.424-.109-.531-.559-.663a9.037,9.037,0,0,0-2.279-.319,7.485,7.485,0,0,0-4.278,1.28,4.755,4.755,0,0,0-1.98,3.81,4.873,4.873,0,0,0,1.951,3.81,6.819,6.819,0,0,0,4.009,1.131,5.8,5.8,0,0,0,2.936-.7.943.943,0,0,0,.535-.978l0-.079.044-.627c0-.046.007-.1.007-.16a.616.616,0,0,0-.126-.422.4.4,0,0,0-.3-.119" transform="translate(-444.92 -306.962)" fill="#0059a9"/>
                <path id="Path_26" data-name="Path 26" d="M529.11,324.741l-.163,1.612c-.022.233-.058.621-.443.621-.178,0-.424-.091-.579-.526-.413-1.026-.557-1.268-1.754-1.268-.278,0-.278,0-.278.309v6.477c0,.765,0,.995.777,1.119.19.029.584.09.584.467,0,.123-.048.409-.484.409l-2.3-.06-2.154.06c-.4,0-.483-.223-.483-.409s.087-.4.508-.467c.8-.134.838-.262.838-1.035v-6.584a.9.9,0,0,0-.025-.251.988.988,0,0,0-.267-.019c-.929,0-1.314.341-1.872,1.156-.255.384-.5.578-.717.578-.243,0-.393-.173-.393-.453l.06-.3.018-.061.387-1.5a.514.514,0,0,1,.516-.32c.926-.038,2.117.157,7.826.022,0,0,.458,0,.4.419" transform="translate(-444.659 -306.96)" fill="#0059a9"/>
                <path id="Path_27" data-name="Path 27" d="M544.377,333.09l-.1,0a.557.557,0,0,1-.518-.307,4.508,4.508,0,0,1-.36-.736l-3.084-7.273-.068-.168c-.131-.332-.221-.506-.7-.506-.6,0-.713.275-.864.657l-.073.181-1.737,4.1-.824,2.064-.151.4a11.471,11.471,0,0,1-.471,1.145.71.71,0,0,1-.685.459.582.582,0,0,1-.141,0,1.231,1.231,0,0,1-.134-.014c-.781-.124-.78-.354-.777-1.119v-5.653c0-.839-.005-1.014.839-1.15.2-.032.522-.086.522-.422,0-.271-.166-.409-.5-.409l-1.064.029-1.076.031-2.3-.061c-.121,0-.483,0-.483.409,0,.336.341.386.526.413l.056.009c.774.134.771.363.764,1.125v5.65c0,.872,0,1.007-.84,1.146-.419.07-.506.294-.506.468s.083.408.483.408l2.153-.06,2.3.06h0a1.9,1.9,0,0,0,.2,0l1.406-.03,1.406.03c.539,0,.619-.275.619-.438,0-.407-.4-.462-.722-.507-.472-.065-.85-.115-.809-.564a2.984,2.984,0,0,1,.165-.611l.046-.132.027-.078c.107-.288.164-.489.587-.487h2.13c.574-.02.59.255.712.579l.031.089.225.559a1.554,1.554,0,0,1,.14.523c0,.138-.1.17-.421.2-.263.027-.624.064-.624.427,0,.292.2.438.6.438l2.184-.06,1.826.06c.157,0,.633,0,.633-.438,0-.419-.35-.43-.557-.435m-7-2.881,1.211-2.987,1.2,2.987Z" transform="translate(-444.534 -306.962)" fill="#0059a9"/>
                <path id="Path_28" data-name="Path 28" d="M458.792,340.872c0-.147-.071-.323-.409-.323l-.464.011-.459.01-.935-.021a.576.576,0,0,0-.416.11.3.3,0,0,0-.086.224c0,.294.253.3.39.3l.111.005a.525.525,0,0,1,.476.291,2.183,2.183,0,0,1,.074.7V344.4l-2.8-3.464-.072-.091c-.209-.265-.251-.3-.667-.3h-1.847c-.142,0-.471,0-.471.3s.31.326.459.332l.057,0c.344.02.38.243.376.713v3.494a3.663,3.663,0,0,1-.088,1.056.309.309,0,0,1-.338.239l-.062,0c-.155,0-.478.017-.478.332,0,.206.153.334.4.334l1-.042.987.042c.268,0,.428-.125.428-.334,0-.313-.342-.328-.489-.332l-.058,0c-.272-.02-.425-.076-.508-.322a4.629,4.629,0,0,1-.068-.981v-3.139l3.943,4.921.043.058a.755.755,0,0,0,.592.394.434.434,0,0,0,.329-.1.409.409,0,0,0,.092-.31c0-.027,0-.056,0-.085l0-.1v-5.1c0-.037,0-.074,0-.107,0-.367.042-.589.332-.627l.128,0a.587.587,0,0,0,.429-.105.281.281,0,0,0,.079-.2" transform="translate(-445.54 -306.751)" fill="#0059a9"/>
                <path id="Path_29" data-name="Path 29" d="M462.1,340.382a3.673,3.673,0,0,0-2.673,1.062,3.536,3.536,0,0,0-1.094,2.516,3.4,3.4,0,0,0,1.24,2.641,4.727,4.727,0,0,0,2.716.874,3.651,3.651,0,0,0,3.808-3.557c0-2.3-2.059-3.537-4-3.537m-.063.6c1.532,0,2.026,2.164,2.026,3.213,0,.927-.344,2.677-1.649,2.677a1.942,1.942,0,0,1-1.568-1.187,4.517,4.517,0,0,1-.459-2.035c0-.924.344-2.668,1.649-2.668" transform="translate(-445.448 -306.754)" fill="#0059a9"/>
                <path id="Path_30" data-name="Path 30" d="M485.817,345.387c-.276,0-.406.306-.463.437a1.67,1.67,0,0,1-1.584.885.911.911,0,0,1-.718-.259,1.54,1.54,0,0,1-.154-.8v-1.274c0-.251,0-.279.218-.291l.449-.021a.719.719,0,0,1,.8.576c.077.2.164.431.446.431.21,0,.334-.153.334-.408-.02-.3-.042-.616-.042-.9l.042-.9a.415.415,0,0,0-.1-.309.307.307,0,0,0-.224-.084c-.283,0-.378.31-.414.426-.093.3-.214.442-.414.479a6.376,6.376,0,0,1-.862.039.312.312,0,0,1-.193-.042.534.534,0,0,1-.039-.288v-1.367c0-.264.03-.34.059-.356a2.217,2.217,0,0,1,.856-.079,1.093,1.093,0,0,1,.752.181,2.519,2.519,0,0,1,.463.521l.015.024c.078.126.2.314.407.314a.329.329,0,0,0,.245-.086.394.394,0,0,0,.08-.307v-.9l0-.084a.409.409,0,0,0-.072-.318.3.3,0,0,0-.224-.08l-1.651.021-1.635.021-1.869-.043a.375.375,0,0,0-.149.027.576.576,0,0,0-.186-.027l-.892.021-.9-.021a.52.52,0,0,0-.37.1.291.291,0,0,0-.08.21c0,.311.293.315.451.318l.111.006c.133.013.288.069.288.254a2.075,2.075,0,0,1-.189.625s-.959,2.333-1.135,2.76c-.181-.435-1.313-3.137-1.313-3.137a1.254,1.254,0,0,1-.114-.365.157.157,0,0,1,.148-.137l.131,0c.181,0,.518,0,.518-.331a.273.273,0,0,0-.078-.2.58.58,0,0,0-.42-.1h-.036l-1.217.043-1.491-.043h-.049a1.1,1.1,0,0,0-.171,0,.44.44,0,0,0-.052,0l-.478.011-.456.01-.945-.021a.524.524,0,0,0-.387.1.294.294,0,0,0-.084.222c0,.3.274.3.406.307l.1.006c.232.031.385.082.469.244a2,2,0,0,1,.081.727v2.809a1.887,1.887,0,0,1-.3,1.283,1.716,1.716,0,0,1-1.391.545,1.407,1.407,0,0,1-1.374-.778,5.356,5.356,0,0,1-.139-1.53v-2.521c0-.583,0-.688.565-.78l.016,0c.121-.019.375-.062.375-.32,0-.208-.128-.314-.377-.314l-1.5.043-1.615-.043a.39.39,0,0,0-.286.09.3.3,0,0,0-.081.224c0,.258.265.3.392.316l.039.007c.521.089.519.233.516.764v3.017a2.06,2.06,0,0,0,.915,2.019,4.432,4.432,0,0,0,2.159.489,3.327,3.327,0,0,0,2.16-.634,2.146,2.146,0,0,0,.661-1.923v-2.763a3.428,3.428,0,0,1,.059-.714c.063-.2.153-.225.377-.253l.084-.008.059,0c.04.008.075.01.1.013h.016c.171.02.256.034.334.126a3.332,3.332,0,0,1,.307.6l2.2,5.092.037.091c.079.2.146.377.487.377.285,0,.365-.163.435-.36,0,.006,2.17-5.127,2.17-5.127l.08-.185c.149-.356.256-.574.564-.616l.09-.009a.939.939,0,0,0,.232-.034,1.41,1.41,0,0,0,.192.043c.545.085.545.295.543.857V345.9c0,.587,0,.694-.6.791-.242.041-.38.173-.38.364s.123.3.366.3l3.024-.043,2.33.043c.256,0,.274-.2.282-.295,0,.006.114-.831.114-.832l.016-.075a2.848,2.848,0,0,0,.069-.414.311.311,0,0,0-.345-.356" transform="translate(-445.353 -306.751)" fill="#0059a9"/>
                <path id="Path_31" data-name="Path 31" d="M494.416,340.609a5.254,5.254,0,0,0,.57-.03,5.585,5.585,0,0,1,.579-.03c.249,0,.377.105.377.314,0,.258-.253.3-.376.32l-.015,0c-.485.079-.556.166-.565.554,0,.117.006.35.006.362v3.737c0,.586.1.849.722.849a1.579,1.579,0,0,0,1.495-.875c.139-.217.258-.4.465-.4h0a.3.3,0,0,1,.314.356,4.242,4.242,0,0,1-.088.726,5.369,5.369,0,0,0-.08.541c-.02.288-.144.335-.312.334-.025,0-.051,0-.077,0l-.118-.005-2.39-.043-2.474.043h-.005c-.1,0-.367,0-.367-.293a.4.4,0,0,1,.38-.375c.565-.094.565-.172.565-.769V342.2c0-.036,0-.07.005-.106v-.143c.005-.532.006-.676-.513-.764l-.039-.006c-.128-.019-.392-.059-.392-.317a.3.3,0,0,1,.081-.224.392.392,0,0,1,.286-.09l1.152.052s.344.019.81.009" transform="translate(-445.015 -306.751)" fill="#0059a9"/>
                <path id="Path_32" data-name="Path 32" d="M488.427,340.609a5.29,5.29,0,0,0,.571-.03,5.553,5.553,0,0,1,.578-.03c.249,0,.377.105.377.314,0,.258-.253.3-.376.32l-.015,0c-.486.079-.556.166-.564.554,0,.117,0,.35,0,.362v3.737c0,.586.1.849.722.849a1.579,1.579,0,0,0,1.5-.875c.139-.217.258-.4.465-.4h.005a.3.3,0,0,1,.314.356,4.236,4.236,0,0,1-.088.726,5.082,5.082,0,0,0-.079.541c-.021.288-.145.335-.313.334-.025,0-.051,0-.077,0l-.119-.005-2.39-.043-2.474.043h-.005c-.1,0-.367,0-.367-.293a.4.4,0,0,1,.38-.375c.566-.094.566-.172.565-.769V342.2c0-.036,0-.07.005-.106v-.143c0-.532.006-.676-.514-.764l-.039-.006c-.128-.019-.392-.059-.392-.317a.3.3,0,0,1,.081-.224.391.391,0,0,1,.286-.09l1.153.052s.344.019.81.009" transform="translate(-445.092 -306.751)" fill="#0059a9"/>
                <path id="Path_33" data-name="Path 33" d="M503.827,345.387c-.275,0-.406.306-.462.436a1.672,1.672,0,0,1-1.586.885.911.911,0,0,1-.717-.259,1.539,1.539,0,0,1-.154-.8v-1.274c0-.251,0-.279.218-.291l.449-.021a.72.72,0,0,1,.8.576c.078.2.163.432.446.432.21,0,.334-.153.334-.408-.02-.3-.043-.616-.043-.9l.041-.9a.409.409,0,0,0-.1-.306.3.3,0,0,0-.226-.086c-.281,0-.377.31-.414.426-.091.3-.212.442-.413.479a6.4,6.4,0,0,1-.863.039.307.307,0,0,1-.192-.042.527.527,0,0,1-.039-.289v-1.367c0-.264.032-.34.059-.356a2.207,2.207,0,0,1,.855-.079,1.091,1.091,0,0,1,.752.181,2.481,2.481,0,0,1,.463.521l.016.024c.077.126.2.314.408.314a.327.327,0,0,0,.244-.086.4.4,0,0,0,.081-.307v-.9l0-.084a.409.409,0,0,0-.073-.318.3.3,0,0,0-.224-.08l-1.651.021-1.634.021-1.869-.043a.345.345,0,0,0-.367.367c0,.134.145.227.432.27.546.085.546.295.544.857V345.9c0,.587,0,.694-.6.791-.242.041-.381.173-.381.364s.124.3.367.3l3.022-.043,2.331.043c.258,0,.275-.2.281-.295,0,.007.115-.831.115-.832l.016-.076a2.728,2.728,0,0,0,.07-.413.311.311,0,0,0-.346-.356" transform="translate(-444.94 -306.751)" fill="#0059a9"/>
                <path id="Path_34" data-name="Path 34" d="M513.115,345.387c-.277,0-.406.306-.464.436a1.667,1.667,0,0,1-1.583.885.912.912,0,0,1-.719-.259,1.539,1.539,0,0,1-.154-.8v-1.274c0-.251,0-.279.219-.291l.449-.021a.718.718,0,0,1,.8.576c.078.2.164.432.446.432.209,0,.336-.153.336-.408-.022-.3-.044-.616-.044-.9l.043-.9a.406.406,0,0,0-.1-.306.3.3,0,0,0-.225-.086c-.284,0-.378.31-.412.426-.1.3-.214.442-.415.479a6.4,6.4,0,0,1-.863.039.307.307,0,0,1-.192-.042.531.531,0,0,1-.04-.289v-1.367c0-.264.032-.34.06-.356a2.213,2.213,0,0,1,.856-.079,1.1,1.1,0,0,1,.752.181,2.535,2.535,0,0,1,.462.521l.015.024c.079.126.2.314.406.314a.332.332,0,0,0,.246-.086.4.4,0,0,0,.079-.307v-.9l0-.084a.411.411,0,0,0-.07-.318.3.3,0,0,0-.225-.08l-1.651.021-1.635.021-1.868-.043a.345.345,0,0,0-.366.367c0,.134.144.227.431.27.546.085.546.295.544.857V345.9c0,.587,0,.694-.6.791-.241.041-.378.173-.378.364s.122.3.366.3l3.022-.043,2.331.043c.256,0,.271-.2.28-.295,0,.007.116-.831.116-.832l.014-.076a2.67,2.67,0,0,0,.072-.413.312.312,0,0,0-.346-.356" transform="translate(-444.821 -306.751)" fill="#0059a9"/>
                <path id="Path_35" data-name="Path 35" d="M507.134,344.137a1.64,1.64,0,0,1-.148.357s-.041.1-.453.094h-1.672c-.306.006-.363-.056-.363-.056a.163.163,0,0,1-.058-.132,4.292,4.292,0,0,1,.252-.675.486.486,0,0,1,.463-.228h1.861a.29.29,0,0,1,.218.059.211.211,0,0,1,.05.12,3.522,3.522,0,0,1-.15.461" transform="translate(-444.857 -306.714)" fill="#0059a9"/>
                <path id="Path_36" data-name="Path 36" d="M510.193,340.06a1.155,1.155,0,0,0,.261-.038l.076-.017,1.431-.315.059-.014c.362-.083.912-.212.912-.748a.624.624,0,0,0-.672-.618,2.2,2.2,0,0,0-.907.349l-1.187.685-.049.029a.437.437,0,0,0-.271.374.313.313,0,0,0,.346.313" transform="translate(-444.788 -306.78)" fill="#0059a9"/>
                <path id="Path_37" data-name="Path 37" d="M519.629,345.253a.419.419,0,0,0-.364.287,2.953,2.953,0,0,1-.664.925,1.631,1.631,0,0,1-1.028.373,2.019,2.019,0,0,1-1.688-1,3.734,3.734,0,0,1-.506-1.953,3.494,3.494,0,0,1,.556-1.971,2.049,2.049,0,0,1,1.639-.9,1.516,1.516,0,0,1,1.395.815c.16.233.3.435.538.435a.29.29,0,0,0,.311-.294,1.433,1.433,0,0,0-.038-.3l-.005-.026-.084-.533,0-.024c-.054-.3-.082-.388-.411-.486a6.367,6.367,0,0,0-1.607-.225,5.28,5.28,0,0,0-3.017.9,3.362,3.362,0,0,0-1.4,2.694,3.445,3.445,0,0,0,1.379,2.7,4.823,4.823,0,0,0,2.831.8,4.093,4.093,0,0,0,2.074-.5.689.689,0,0,0,.388-.708v-.054l.032-.441c0-.032,0-.071,0-.114a.455.455,0,0,0-.1-.314.308.308,0,0,0-.234-.092" transform="translate(-444.744 -306.754)" fill="#0059a9"/>
                <path id="Path_38" data-name="Path 38" d="M523.854,340.382a3.668,3.668,0,0,0-2.671,1.062,3.534,3.534,0,0,0-1.095,2.516,3.4,3.4,0,0,0,1.239,2.641,4.72,4.72,0,0,0,2.716.874,3.652,3.652,0,0,0,3.81-3.557c0-2.3-2.061-3.537-4-3.537m-.063.6c1.531,0,2.026,2.164,2.026,3.213,0,.927-.344,2.677-1.647,2.677a1.943,1.943,0,0,1-1.569-1.187,4.521,4.521,0,0,1-.459-2.035c0-.924.343-2.668,1.648-2.668" transform="translate(-444.656 -306.754)" fill="#0059a9"/>
                <path id="Path_39" data-name="Path 39" d="M531.166,342.854l-.534-.178c-.548-.178-.886-.376-.886-.806,0-.511.553-.829,1.071-.829s.849.329,1.1,1.066c.03.1.11.362.392.362a.3.3,0,0,0,.226-.084.539.539,0,0,0,.1-.391l0-.037v-.715l0-.069a.467.467,0,0,0-.229-.5,3.9,3.9,0,0,0-1.419-.287c-1.368,0-2.842.854-2.842,2.235,0,1.173,1.2,1.673,1.918,1.973l.213.085c.6.231,1.28.491,1.28,1.175,0,.73-.788,1-1.315,1a1.454,1.454,0,0,1-1.012-.345,1.63,1.63,0,0,1-.381-.788l-.025-.1c-.053-.191-.14-.511-.45-.511a.288.288,0,0,0-.209.084.763.763,0,0,0-.117.534l0,.063v.658c0,.292,0,.486.368.671a4.937,4.937,0,0,0,1.824.359,3.057,3.057,0,0,0,2.006-.656,2.36,2.36,0,0,0,.88-1.767c0-1.393-1.046-1.906-1.959-2.2" transform="translate(-444.554 -306.754)" fill="#0059a9"/>
                <path id="Path_40" data-name="Path 40" d="M536.557,342.854l-.536-.178c-.547-.178-.885-.376-.885-.806,0-.511.555-.829,1.07-.829s.849.329,1.1,1.066c.028.1.109.362.391.362a.3.3,0,0,0,.224-.084.524.524,0,0,0,.1-.391v-.821a.471.471,0,0,0-.229-.5,3.918,3.918,0,0,0-1.419-.286c-1.368,0-2.844.854-2.844,2.235,0,1.173,1.2,1.673,1.918,1.973l.215.085c.6.231,1.278.491,1.278,1.175,0,.73-.784,1-1.313,1a1.459,1.459,0,0,1-1.013-.345,1.613,1.613,0,0,1-.378-.788l-.031-.1c-.051-.191-.137-.511-.446-.511a.285.285,0,0,0-.209.084.761.761,0,0,0-.117.534v.721c0,.292-.005.486.366.671a4.948,4.948,0,0,0,1.825.359,3.054,3.054,0,0,0,2-.656,2.363,2.363,0,0,0,.881-1.767c0-1.393-1.047-1.906-1.958-2.2" transform="translate(-444.485 -306.754)" fill="#0059a9"/>
                <path id="Path_41" data-name="Path 41" d="M544.472,345.387c-.273,0-.4.306-.462.436a1.669,1.669,0,0,1-1.583.885.908.908,0,0,1-.718-.259,1.522,1.522,0,0,1-.156-.8v-1.274c0-.251,0-.279.219-.291l.45-.021a.72.72,0,0,1,.8.576c.076.2.164.432.446.432.209,0,.334-.153.334-.408-.022-.3-.044-.615-.044-.9l.041-.9c0-.356-.225-.394-.323-.394-.282,0-.378.31-.414.426-.092.3-.213.442-.412.479a6.426,6.426,0,0,1-.863.039.315.315,0,0,1-.193-.042.531.531,0,0,1-.04-.289v-1.367c0-.264.032-.34.059-.356a2.223,2.223,0,0,1,.856-.079,1.1,1.1,0,0,1,.753.181,2.641,2.641,0,0,1,.465.521l.014.025c.077.125.2.313.408.313a.32.32,0,0,0,.242-.086.39.39,0,0,0,.081-.307v-.9l0-.084a.409.409,0,0,0-.071-.318.3.3,0,0,0-.224-.08l-1.651.021-1.634.021-1.871-.043a.348.348,0,0,0-.367.367c0,.134.147.227.435.27.544.085.544.295.542.857V345.9c0,.587,0,.694-.6.791-.241.041-.381.173-.381.364s.125.3.367.3l3.024-.043,2.329.043c.258,0,.276-.2.282-.295,0,.006.115-.831.116-.832l.015-.077a2.6,2.6,0,0,0,.07-.412.311.311,0,0,0-.346-.356" transform="translate(-444.419 -306.751)" fill="#0059a9"/>
              </g>
            </g>
          </g>
          <text id="Driver_Licence_Permis_de_conduire" data-name="Driver Licence / Permis de conduire" transform="translate(291.083 35.62)" fill="#707070" font-size="15" font-family="OpenSans-Bold, Open Sans" font-weight="700"><tspan x="0" y="0">Driver Licence / Permis de conduire</tspan></text>
          <text id="_4d" data-name="4d" transform="translate(176.083 75.62)" fill="#707070" font-size="13" font-family="OpenSans-Bold, Open Sans" font-weight="700"><tspan x="0" y="0">4d</tspan></text>
          <text id="_4a" data-name="4a" transform="translate(176.083 96.62)" fill="#707070" font-size="13" font-family="OpenSans-Bold, Open Sans" font-weight="700"><tspan x="0" y="0">4a</tspan></text>
          <text id="_4b" data-name="4b" transform="translate(176.083 120.62)" fill="#707070" font-size="13" font-family="OpenSans-Bold, Open Sans" font-weight="700"><tspan x="0" y="0">4b</tspan></text>
          <text id="_1" data-name="1" transform="translate(176.083 141.62)" fill="#707070" font-size="13" font-family="OpenSans-Bold, Open Sans" font-weight="700"><tspan x="0" y="0">1</tspan></text>
          <text id="_2" data-name="2" transform="translate(176.083 165.62)" fill="#707070" font-size="13" font-family="OpenSans-Bold, Open Sans" font-weight="700"><tspan x="0" y="0">2</tspan></text>
          <rect id="Rectangle_57" data-name="Rectangle 57" width="135" height="14" transform="translate(211.083 155.621)" fill="#c9c9c9"/>
          <text id="_8" data-name="8" transform="translate(176.083 198.62)" fill="#707070" font-size="13" font-family="OpenSans-Bold, Open Sans" font-weight="700"><tspan x="0" y="0">8</tspan></text>
          <text id="_15" data-name="15" transform="translate(176.083 283.62)" fill="#707070" font-size="13" font-family="OpenSans-Bold, Open Sans" font-weight="700"><tspan x="0" y="0">15</tspan></text>
          <text id="_18" data-name="18" transform="translate(176.083 303.62)" fill="#707070" font-size="13" font-family="OpenSans-Bold, Open Sans" font-weight="700"><tspan x="0" y="0">18</tspan></text>
          <text id="_9a" data-name="9a" transform="translate(176.083 348.62)" fill="#707070" font-size="13" font-family="OpenSans-Bold, Open Sans" font-weight="700"><tspan x="0" y="0">9a</tspan></text>
          <rect id="Rectangle_58" data-name="Rectangle 58" width="87" height="14" transform="translate(381.083 274.621)" fill="#c9c9c9"/>
          <text id="_16" data-name="16" transform="translate(346.083 283.62)" fill="#707070" font-size="13" font-family="OpenSans-Bold, Open Sans" font-weight="700"><tspan x="0" y="0">16</tspan></text>
          <text id="_5" data-name="5" transform="translate(24.083 387.62)" fill="#707070" font-size="13" font-family="OpenSans-Bold, Open Sans" font-weight="700"><tspan x="0" y="0">5</tspan></text>
          <rect id="Rectangle_60" data-name="Rectangle 60" width="77" height="12" transform="translate(301.083 377.621)" fill="#fff"/>
          <text id="_12" data-name="12" transform="translate(272.083 387.62)" fill="#707070" font-size="13" font-family="OpenSans-Bold, Open Sans" font-weight="700"><tspan x="0" y="0">12</tspan></text>
          <g id="Rectangle_61" data-name="Rectangle 61" transform="translate(0.083 -0.379)" fill="none" stroke="#707070" stroke-width="1">
            <rect width="662" height="399" rx="8" stroke="none"/>
            <rect x="0.5" y="0.5" width="661" height="398" rx="7.5" fill="none"/>
          </g>
          <text id="_3" data-name="3" transform="translate(399.083 96.62)" fill="#707070" font-size="13" font-family="OpenSans-Bold, Open Sans" font-weight="700"><tspan x="0" y="0">3</tspan></text>
          <text id="NS" transform="translate(610.083 36.62)" fill="#0059a9" font-size="16" font-family="OpenSans-Bold, Open Sans" font-weight="700"><tspan x="0" y="0">NS</tspan></text>
          <rect id="Rectangle_64" data-name="Rectangle 64" width="87" height="14" transform="translate(211.083 318.621)" fill="#c9c9c9"/>
          <text id="_9" data-name="9" transform="translate(176.083 325.62)" fill="#707070" font-size="13" font-family="OpenSans-Bold, Open Sans" font-weight="700"><tspan x="0" y="0">9</tspan></text>
        </g>
      </g>
    </g>
    <text id="A_B_C_D_E_1_2_3_4_5_6_0_0_0" data-name="A B C D E  1 2 3 4 5 6  0 0 0" transform="translate(1068 353)" fill="#505050" font-size="17" font-family="OpenSans, Open Sans"><tspan x="0" y="0" xml:space="preserve">A B C D E  1 2 3 4 5 6  0 0 0</tspan></text>
    <g id="Rectangle_86" data-name="Rectangle 86" transform="translate(1065 336)" fill="none" stroke="#cf2323" stroke-width="1">
      <rect width="79" height="23" stroke="none"/>
      <rect x="0.5" y="0.5" width="78" height="22" fill="none"/>
    </g>
    <g id="Rectangle_87" data-name="Rectangle 87" transform="translate(1148 336)" fill="none" stroke="#cf2323" stroke-width="1">
      <rect width="84" height="23" stroke="none"/>
      <rect x="0.5" y="0.5" width="83" height="22" fill="none"/>
    </g>
    <g id="Rectangle_88" data-name="Rectangle 88" transform="translate(1236 336)" fill="none" stroke="#cf2323" stroke-width="1">
      <rect width="42" height="23" stroke="none"/>
      <rect x="0.5" y="0.5" width="41" height="22" fill="none"/>
    </g>
    <g transform="matrix(1, 0, 0, 1, 965, 291)" filter="url(#Path_42)">
      <g id="Path_42-2" data-name="Path 42" transform="translate(156.2 62.8) rotate(90)" fill="#f8d44c" stroke-linejoin="round">
        <path d="M 36.83126068115234 34.23710250854492 L 23.05965042114258 34.23710250854492 C 20.05213928222656 34.23710250854492 17.47698974609375 33.11279296875 15.61259937286377 30.9857120513916 C 13.83715915679932 28.96011161804199 12.85937976837158 26.15061187744141 12.85937976837158 23.07473182678223 L 12.85937976837158 22.8226203918457 L 12.62590980529785 22.72746086120605 L 0.8949158191680908 17.94634437561035 L 12.65648937225342 11.8705415725708 L 12.85937976837158 11.76573085784912 L 12.85937976837158 11.53737163543701 C 12.85937976837158 8.461491584777832 13.83715915679932 5.651991367340088 15.61259937286377 3.626391172409058 C 17.47698974609375 1.499311208724976 20.05213928222656 0.3750012516975403 23.05965042114258 0.3750012516975403 L 36.83126068115234 0.3750012516975403 C 39.88137054443359 0.3750012516975403 42.74850082397461 1.537101268768311 44.90449905395508 3.647221326828003 C 47.05833053588867 5.755211353302002 48.24449920654297 8.557321548461914 48.24449920654297 11.53737163543701 L 48.24449920654297 23.07473182678223 C 48.24449920654297 26.05478096008301 47.05833053588867 28.85689163208008 44.90449905395508 30.96488189697266 C 42.74850082397461 33.07500076293945 39.88137054443359 34.23710250854492 36.83126068115234 34.23710250854492 Z" stroke="none"/>
        <path d="M 23.05965042114258 0.75 C 20.16333961486816 0.75 17.68569946289063 1.830112457275391 15.89459991455078 3.873571395874023 C 14.17911911010742 5.830751419067383 13.23437118530273 8.552471160888672 13.23437118530273 11.5373706817627 C 13.23437118530273 11.81789207458496 13.07781982421875 12.07496070861816 12.82859039306641 12.20371055603027 L 1.789825439453125 17.90612983703613 L 12.76744079589844 22.38020133972168 C 13.04978942871094 22.49527168273926 13.23437118530273 22.76983261108398 13.23437118530273 23.07472991943359 C 13.23437118530273 26.05963134765625 14.17911911010742 28.78135108947754 15.89459991455078 30.7385311126709 C 17.68569946289063 32.78199005126953 20.16333961486816 33.86210250854492 23.05965042114258 33.86210250854492 L 36.83126068115234 33.86210250854492 C 39.78271865844727 33.86210250854492 42.55670166015625 32.73800277709961 44.64220809936523 30.69688034057617 C 46.72335815429688 28.66002082824707 47.86949920654297 25.95309066772461 47.86949920654297 23.07472991943359 L 47.86949920654297 11.5373706817627 C 47.86949920654297 8.659011840820313 46.72335815429688 5.952081680297852 44.64220809936523 3.91522216796875 C 42.55670166015625 1.874099731445313 39.78271865844727 0.75 36.83126068115234 0.75 L 23.05965042114258 0.75 M 23.05965042114258 0 L 36.83126068115234 0 C 43.34172058105469 0 48.61949920654297 5.165451049804688 48.61949920654297 11.5373706817627 L 48.61949920654297 23.07472991943359 C 48.61949920654297 29.44664192199707 43.34172058105469 34.61210250854492 36.83126068115234 34.61210250854492 L 23.05965042114258 34.61210250854492 C 16.54919052124023 34.61210250854492 12.48437118530273 29.44665145874023 12.48437118530273 23.07472991943359 L 0 17.9865608215332 L 12.48437118530273 11.5373706817627 C 12.48437118530273 5.165451049804688 16.54919052124023 0 23.05965042114258 0 Z" stroke="none" fill="#d6a70b"/>
      </g>
    </g>
    <text id="_1-2" data-name="1" transform="translate(1099 392)" fill="#505050" font-size="20" font-family="OpenSans-Bold, Open Sans" font-weight="700"><tspan x="0" y="0">1</tspan></text>
    <g transform="matrix(1, 0, 0, 1, 965, 291)" filter="url(#Path_45)">
      <g id="Path_45-2" data-name="Path 45" transform="translate(242.33 62.8) rotate(90)" fill="#f8d44c" stroke-linejoin="round">
        <path d="M 36.83126068115234 34.23710250854492 L 23.05965042114258 34.23710250854492 C 20.05213928222656 34.23710250854492 17.47698974609375 33.11279296875 15.61259937286377 30.9857120513916 C 13.83715915679932 28.96011161804199 12.85937976837158 26.15061187744141 12.85937976837158 23.07473182678223 L 12.85937976837158 22.8226203918457 L 12.62590980529785 22.72746086120605 L 0.8949158191680908 17.94634437561035 L 12.65648937225342 11.8705415725708 L 12.85937976837158 11.76573085784912 L 12.85937976837158 11.53737163543701 C 12.85937976837158 8.461491584777832 13.83715915679932 5.651991367340088 15.61259937286377 3.626391172409058 C 17.47698974609375 1.499311208724976 20.05213928222656 0.3750012516975403 23.05965042114258 0.3750012516975403 L 36.83126068115234 0.3750012516975403 C 39.88137054443359 0.3750012516975403 42.74850082397461 1.537101268768311 44.90449905395508 3.647221326828003 C 47.05833053588867 5.755211353302002 48.24449920654297 8.557321548461914 48.24449920654297 11.53737163543701 L 48.24449920654297 23.07473182678223 C 48.24449920654297 26.05478096008301 47.05833053588867 28.85689163208008 44.90449905395508 30.96488189697266 C 42.74850082397461 33.07500076293945 39.88137054443359 34.23710250854492 36.83126068115234 34.23710250854492 Z" stroke="none"/>
        <path d="M 23.05965042114258 0.75 C 20.16333961486816 0.75 17.68569946289063 1.830112457275391 15.89459991455078 3.873571395874023 C 14.17911911010742 5.830751419067383 13.23437118530273 8.552471160888672 13.23437118530273 11.5373706817627 C 13.23437118530273 11.81789207458496 13.07781982421875 12.07496070861816 12.82859039306641 12.20371055603027 L 1.789825439453125 17.90612983703613 L 12.76744079589844 22.38020133972168 C 13.04978942871094 22.49527168273926 13.23437118530273 22.76983261108398 13.23437118530273 23.07472991943359 C 13.23437118530273 26.05963134765625 14.17911911010742 28.78135108947754 15.89459991455078 30.7385311126709 C 17.68569946289063 32.78199005126953 20.16333961486816 33.86210250854492 23.05965042114258 33.86210250854492 L 36.83126068115234 33.86210250854492 C 39.78271865844727 33.86210250854492 42.55670166015625 32.73800277709961 44.64220809936523 30.69688034057617 C 46.72335815429688 28.66002082824707 47.86949920654297 25.95309066772461 47.86949920654297 23.07472991943359 L 47.86949920654297 11.5373706817627 C 47.86949920654297 8.659011840820313 46.72335815429688 5.952081680297852 44.64220809936523 3.91522216796875 C 42.55670166015625 1.874099731445313 39.78271865844727 0.75 36.83126068115234 0.75 L 23.05965042114258 0.75 M 23.05965042114258 0 L 36.83126068115234 0 C 43.34172058105469 0 48.61949920654297 5.165451049804688 48.61949920654297 11.5373706817627 L 48.61949920654297 23.07472991943359 C 48.61949920654297 29.44664192199707 43.34172058105469 34.61210250854492 36.83126068115234 34.61210250854492 L 23.05965042114258 34.61210250854492 C 16.54919052124023 34.61210250854492 12.48437118530273 29.44665145874023 12.48437118530273 23.07472991943359 L 0 17.9865608215332 L 12.48437118530273 11.5373706817627 C 12.48437118530273 5.165451049804688 16.54919052124023 0 23.05965042114258 0 Z" stroke="none" fill="#d6a70b"/>
      </g>
    </g>
    <text id="_2-2" data-name="2" transform="translate(1185 392)" fill="#505050" font-size="20" font-family="OpenSans-Bold, Open Sans" font-weight="700"><tspan x="0" y="0">2</tspan></text>
    <g transform="matrix(1, 0, 0, 1, 965, 291)" filter="url(#Path_46)">
      <g id="Path_46-2" data-name="Path 46" transform="translate(309.04 62.8) rotate(90)" fill="#f8d44c" stroke-linejoin="round">
        <path d="M 36.83126068115234 34.23710250854492 L 23.05965042114258 34.23710250854492 C 20.05213928222656 34.23710250854492 17.47698974609375 33.11279296875 15.61259937286377 30.9857120513916 C 13.83715915679932 28.96011161804199 12.85937976837158 26.15061187744141 12.85937976837158 23.07473182678223 L 12.85937976837158 22.8226203918457 L 12.62590980529785 22.72746086120605 L 0.8949158191680908 17.94634437561035 L 12.65648937225342 11.8705415725708 L 12.85937976837158 11.76573085784912 L 12.85937976837158 11.53737163543701 C 12.85937976837158 8.461491584777832 13.83715915679932 5.651991367340088 15.61259937286377 3.626391172409058 C 17.47698974609375 1.499311208724976 20.05213928222656 0.3750012516975403 23.05965042114258 0.3750012516975403 L 36.83126068115234 0.3750012516975403 C 39.88137054443359 0.3750012516975403 42.74850082397461 1.537101268768311 44.90449905395508 3.647221326828003 C 47.05833053588867 5.755211353302002 48.24449920654297 8.557321548461914 48.24449920654297 11.53737163543701 L 48.24449920654297 23.07473182678223 C 48.24449920654297 26.05478096008301 47.05833053588867 28.85689163208008 44.90449905395508 30.96488189697266 C 42.74850082397461 33.07500076293945 39.88137054443359 34.23710250854492 36.83126068115234 34.23710250854492 Z" stroke="none"/>
        <path d="M 23.05965042114258 0.75 C 20.16333961486816 0.75 17.68569946289063 1.830112457275391 15.89459991455078 3.873571395874023 C 14.17911911010742 5.830751419067383 13.23437118530273 8.552471160888672 13.23437118530273 11.5373706817627 C 13.23437118530273 11.81789207458496 13.07781982421875 12.07496070861816 12.82859039306641 12.20371055603027 L 1.789825439453125 17.90612983703613 L 12.76744079589844 22.38020133972168 C 13.04978942871094 22.49527168273926 13.23437118530273 22.76983261108398 13.23437118530273 23.07472991943359 C 13.23437118530273 26.05963134765625 14.17911911010742 28.78135108947754 15.89459991455078 30.7385311126709 C 17.68569946289063 32.78199005126953 20.16333961486816 33.86210250854492 23.05965042114258 33.86210250854492 L 36.83126068115234 33.86210250854492 C 39.78271865844727 33.86210250854492 42.55670166015625 32.73800277709961 44.64220809936523 30.69688034057617 C 46.72335815429688 28.66002082824707 47.86949920654297 25.95309066772461 47.86949920654297 23.07472991943359 L 47.86949920654297 11.5373706817627 C 47.86949920654297 8.659011840820313 46.72335815429688 5.952081680297852 44.64220809936523 3.91522216796875 C 42.55670166015625 1.874099731445313 39.78271865844727 0.75 36.83126068115234 0.75 L 23.05965042114258 0.75 M 23.05965042114258 0 L 36.83126068115234 0 C 43.34172058105469 0 48.61949920654297 5.165451049804688 48.61949920654297 11.5373706817627 L 48.61949920654297 23.07472991943359 C 48.61949920654297 29.44664192199707 43.34172058105469 34.61210250854492 36.83126068115234 34.61210250854492 L 23.05965042114258 34.61210250854492 C 16.54919052124023 34.61210250854492 12.48437118530273 29.44665145874023 12.48437118530273 23.07472991943359 L 0 17.9865608215332 L 12.48437118530273 11.5373706817627 C 12.48437118530273 5.165451049804688 16.54919052124023 0 23.05965042114258 0 Z" stroke="none" fill="#d6a70b"/>
      </g>
    </g>
    <text id="_3-2" data-name="3" transform="translate(1252 392)" fill="#505050" font-size="20" font-family="OpenSans-Bold, Open Sans" font-weight="700"><tspan x="0" y="0">3</tspan></text>
  </g>
</svg>
